<?xml version="1.0" encoding="UTF-8"?>
<!-- Generator: visioncortex VTracer 0.6.3 -->
<svg version="1.1" xmlns="http://www.w3.org/2000/svg" width="1280" height="1147">
<path d="M0 0 C3 2 3 2 3.38 3.82 C3.39 4.57 3.39 5.31 3.4 6.07 C3.41 6.93 3.42 7.78 3.44 8.66 C3.44 9.6 3.43 10.53 3.43 11.5 C3.44 12.48 3.45 13.47 3.46 14.48 C3.49 17.75 3.5 21.02 3.51 24.29 C3.53 26.55 3.55 28.81 3.57 31.07 C3.61 37.03 3.64 43 3.67 48.96 C3.7 55.04 3.75 61.12 3.79 67.2 C3.88 79.13 3.94 91.06 4 103 C6.84 100.17 9.64 97.35 12.25 94.31 C15.04 91.1 17.85 87.92 20.69 84.75 C21.41 83.94 22.14 83.13 22.89 82.3 C26.94 77.89 26.94 77.89 29 76 C29.66 76 30.32 76 31 76 C31.33 75.01 31.66 74.02 32 73 C33.83 71.31 33.83 71.31 36.25 69.44 C37.61 68.38 37.61 68.38 39 67.3 C40.49 66.16 40.49 66.16 42 65 C43.01 64.2 44.02 63.4 45.06 62.57 C50.74 58.08 56.54 53.86 62.62 49.94 C63.22 49.56 63.81 49.17 64.42 48.78 C66.93 47.19 69.16 45.95 72 45 C72.33 44.34 72.66 43.68 73 43 C76.94 40.79 81.03 38.87 85.1 36.92 C86.82 36.09 88.54 35.23 90.26 34.38 C97.88 30.7 105.63 28.01 113.74 25.66 C116.14 24.96 118.53 24.23 120.91 23.5 C130.09 20.73 139.26 18.38 148.69 16.62 C149.57 16.46 150.46 16.29 151.37 16.12 C157.29 15.08 162.99 14.81 169 15 C169 14.67 169 14.34 169 14 C174.4 13.24 179.66 12.85 185.11 12.87 C186.22 12.87 186.22 12.87 187.34 12.86 C188.88 12.86 190.42 12.87 191.97 12.87 C194.32 12.88 196.68 12.87 199.04 12.86 C200.54 12.86 202.05 12.87 203.55 12.87 C204.25 12.87 204.96 12.86 205.68 12.86 C208.73 12.88 211.08 13.03 214 14 C216.67 14.36 219.33 14.69 222 15 C226.37 15.51 230.7 16.06 235 17 C235 17.66 235 18.32 235 19 C235.86 18.72 235.86 18.72 236.74 18.42 C239.39 17.93 240.69 18.3 243.21 19.21 C244 19.5 244.79 19.78 245.6 20.07 C262.71 26.68 278.19 34.82 292 47 C292.84 47.73 293.68 48.46 294.55 49.21 C297.07 51.44 299.54 53.71 302 56 C302.82 56.76 303.65 57.52 304.5 58.3 C329.96 82.61 343.29 118.15 344.22 152.94 C344.79 192.24 331.77 227.36 305 256 C304.46 256.58 303.92 257.17 303.36 257.77 C289.75 272.36 272.71 284.42 253 289 C251.9 289.26 250.81 289.53 249.68 289.8 C246.46 290.56 243.23 291.3 240 292 C239.26 292.17 238.53 292.35 237.77 292.53 C220.13 295.55 199.04 294.14 182 289 C180.7 288.65 179.4 288.29 178.09 287.94 C164.21 283.81 151.85 276.57 141 267 C140.18 266.3 139.37 265.61 138.52 264.89 C124.96 253.06 114.88 239.05 104.7 224.37 C90.64 203.17 90.64 203.17 69 191 C60.98 189.84 53.22 192.88 46.75 197.67 C45.14 199.08 43.56 200.54 42 202 C41.34 202 40.68 202 40 202 C39.74 202.58 39.49 203.17 39.22 203.77 C37.89 206.2 36.39 207.78 34.44 209.75 C15.69 230.54 9.86 261.81 6.12 288.69 C6.02 289.46 5.91 290.23 5.8 291.03 C3.58 309 3.86 327.21 3.87 345.28 C3.87 347.98 3.87 350.68 3.87 353.37 C3.86 359.89 3.86 366.41 3.86 372.93 C3.87 378.23 3.87 383.53 3.87 388.82 C3.87 389.58 3.87 390.34 3.87 391.12 C3.87 392.66 3.87 394.2 3.86 395.73 C3.86 410.1 3.87 424.47 3.87 438.84 C3.88 451.17 3.87 463.5 3.87 475.83 C3.86 490.17 3.86 504.52 3.87 518.87 C3.87 520.4 3.87 521.92 3.87 523.45 C3.87 524.2 3.87 524.96 3.87 525.73 C3.87 531.03 3.87 536.33 3.86 541.63 C3.86 548.07 3.86 554.51 3.87 560.95 C3.87 564.24 3.87 567.53 3.87 570.82 C3.86 574.37 3.87 577.93 3.87 581.49 C3.87 582.53 3.87 583.58 3.87 584.66 C3.87 586.08 3.87 586.08 3.87 587.53 C3.87 588.76 3.87 588.76 3.87 590.02 C3.88 592.08 3.88 592.08 5 594 C5.19 596.11 5.38 598.21 5.54 600.32 C6.82 616.5 10.31 631.6 18 646 C18.55 647.03 19.09 648.05 19.66 649.11 C34.78 676.19 61.51 696.82 91 706 C91.66 706 92.32 706 93 706 C93 706.66 93 707.32 93 708 C93.99 707.67 94.98 707.34 96 707 C98.69 707.44 98.69 707.44 101 708 C101 708.66 101 709.32 101 710 C101.8 709.81 102.61 709.63 103.44 709.44 C104.28 709.29 105.13 709.15 106 709 C106.33 709.33 106.66 709.66 107 710 C109.67 710.14 112.32 710.04 115 710 C115 710.33 115 710.66 115 711 C116.03 711.06 116.03 711.06 117.08 711.11 C117.98 711.18 118.88 711.24 119.81 711.31 C121.15 711.4 121.15 711.4 122.52 711.49 C125.53 712.11 126.25 712.47 128 715 C128.3 717.8 128.41 720.38 128.39 723.19 C128.39 724.02 128.4 724.86 128.4 725.72 C128.42 728.48 128.41 731.24 128.4 734 C128.4 735.92 128.4 737.83 128.41 739.75 C128.41 743.77 128.41 747.79 128.39 751.8 C128.37 756.96 128.38 762.11 128.4 767.27 C128.41 771.23 128.41 775.19 128.4 779.14 C128.4 781.05 128.4 782.95 128.41 784.85 C128.42 787.5 128.4 790.16 128.39 792.81 C128.39 793.6 128.4 794.39 128.41 795.2 C128.34 800.52 128.34 800.52 126.78 802.7 C124.46 804.4 123.08 804.37 120.22 804.37 C119.23 804.38 118.24 804.38 117.22 804.39 C116.12 804.38 115.03 804.37 113.91 804.36 C112.75 804.36 111.6 804.37 110.4 804.37 C107.19 804.37 103.97 804.36 100.76 804.35 C97.29 804.34 93.82 804.34 90.36 804.34 C84.35 804.34 78.34 804.33 72.33 804.32 C63.65 804.29 54.96 804.28 46.27 804.28 C32.17 804.27 18.07 804.25 3.97 804.23 C-9.72 804.2 -23.41 804.18 -37.1 804.16 C-37.95 804.16 -38.79 804.16 -39.66 804.16 C-43.89 804.16 -48.12 804.15 -52.35 804.15 C-86.88 804.12 -121.41 804.07 -155.94 804 C-159.88 804 -163.82 804 -167.76 804.01 C-169.45 804.01 -171.15 804.01 -172.84 804.01 C-173.76 804.01 -174.67 804.02 -175.62 804.02 C-216.39 804.06 -257.16 804.1 -297.93 804.13 C-298.61 804.13 -299.29 804.13 -299.99 804.13 C-314.78 804.14 -329.56 804.15 -344.35 804.15 C-351.6 804.16 -358.85 804.16 -366.1 804.16 C-366.82 804.17 -367.54 804.17 -368.29 804.17 C-391.64 804.18 -414.99 804.2 -438.34 804.23 C-462.35 804.26 -486.37 804.28 -510.39 804.28 C-513.79 804.28 -517.19 804.28 -520.59 804.28 C-521.26 804.28 -521.93 804.29 -522.61 804.29 C-534 804.29 -545.39 804.3 -556.78 804.32 C-566.93 804.34 -577.07 804.34 -587.22 804.34 C-593.07 804.34 -598.91 804.34 -604.76 804.36 C-610.13 804.37 -615.49 804.37 -620.86 804.36 C-622.79 804.36 -624.71 804.37 -626.64 804.37 C-666.5 804.56 -704.28 794.95 -736 770 C-737.03 769.19 -738.06 768.39 -739.12 767.56 C-753.72 755.78 -766.97 742.17 -778 727 C-778.73 726.02 -779.46 725.03 -780.22 724.02 C-785 717.45 -785 717.45 -785 714 C-785.66 714 -786.32 714 -787 714 C-794.85 699.75 -801.11 685.56 -806 670 C-806.39 668.78 -806.78 667.57 -807.19 666.31 C-808.19 662.23 -808.64 658.18 -809 654 C-809.33 654 -809.66 654 -810 654 C-810.32 652.23 -810.63 650.46 -810.94 648.69 C-811.11 647.7 -811.29 646.72 -811.46 645.7 C-812.92 635.65 -813.24 625.65 -813.25 615.5 C-813.25 614.78 -813.25 614.06 -813.25 613.32 C-813.18 566.07 -801.13 519.49 -773 481 C-772.35 480.1 -772.35 480.1 -771.7 479.19 C-765.42 470.53 -758.37 462.72 -751 455 C-750.39 454.33 -749.77 453.67 -749.14 452.98 C-737.67 440.86 -722.08 430.91 -707 424 C-707 423.34 -707 422.68 -707 422 C-707.71 421.75 -708.42 421.5 -709.16 421.24 C-723.67 414.9 -736.57 400.25 -746 388 C-746.76 387.07 -747.53 386.15 -748.32 385.2 C-759.79 371.02 -768.89 354.76 -776 338 C-776.4 337.07 -776.79 336.14 -777.2 335.18 C-779.91 328.6 -782.29 321.91 -784 315 C-784.35 313.87 -784.7 312.73 -785.06 311.56 C-785.87 308.48 -786.19 306.15 -786 303 C-786.33 303 -786.66 303 -787 303 C-789.87 289.09 -790.52 275.62 -790.44 261.44 C-790.43 259.85 -790.43 259.85 -790.43 258.23 C-790.37 242.48 -789.69 227.38 -786 212 C-785.81 211.15 -785.61 210.3 -785.42 209.42 C-781.5 192.27 -775.27 176.5 -767 161 C-766.68 160.39 -766.36 159.78 -766.02 159.15 C-759.04 146.02 -750.19 134.8 -740 124 C-739.28 123.21 -738.56 122.43 -737.81 121.62 C-706.02 88.21 -659.44 68.01 -615 58.81 C-614.27 58.66 -613.53 58.5 -612.78 58.34 C-598.15 55.46 -583.53 54.71 -568.66 54.8 C-566.89 54.8 -565.12 54.8 -563.34 54.8 C-558.53 54.81 -553.71 54.83 -548.9 54.85 C-543.68 54.87 -538.47 54.88 -533.25 54.89 C-524.24 54.91 -515.22 54.94 -506.2 54.97 C-493.17 55.02 -480.13 55.06 -467.1 55.09 C-445.94 55.14 -424.79 55.21 -403.64 55.28 C-383.1 55.34 -362.56 55.41 -342.02 55.46 C-340.12 55.47 -340.12 55.47 -338.18 55.47 C-331.82 55.49 -325.46 55.51 -319.1 55.53 C-266.4 55.67 -213.7 55.83 -161 56 C-163.62 67.34 -174.4 72.76 -183.56 78.54 C-185.52 79.76 -187.48 80.98 -189.44 82.19 C-191.57 83.51 -193.71 84.84 -195.84 86.17 C-196.89 86.82 -197.93 87.47 -199.01 88.14 C-203.19 90.74 -207.34 93.37 -211.5 96 C-218.55 100.46 -225.61 104.89 -232.69 109.31 C-233.7 109.94 -234.7 110.57 -235.74 111.22 C-240.86 114.41 -245.97 117.61 -251.09 120.8 C-261.66 127.39 -272.2 134.02 -282.7 140.73 C-290.52 145.71 -298.38 150.63 -306.25 155.54 C-312.35 159.34 -318.43 163.16 -324.5 167 C-331.55 171.46 -338.61 175.89 -345.69 180.31 C-346.7 180.94 -347.7 181.57 -348.74 182.22 C-353.86 185.41 -358.97 188.61 -364.09 191.8 C-374.66 198.39 -385.2 205.02 -395.7 211.73 C-403.52 216.71 -411.38 221.63 -419.25 226.54 C-425.35 230.34 -431.43 234.16 -437.5 238 C-445.55 243.09 -453.62 248.15 -461.7 253.19 C-466.5 256.19 -471.3 259.19 -476.09 262.21 C-477.77 263.27 -479.45 264.33 -481.13 265.39 C-483.26 266.73 -485.39 268.08 -487.51 269.43 C-488.46 270.03 -489.42 270.63 -490.4 271.25 C-491.24 271.78 -492.08 272.31 -492.95 272.86 C-495 274 -495 274 -497 274 C-497 284.56 -497 295.12 -497 306 C-492.65 304.55 -490.08 303.64 -486.45 301.27 C-485.6 300.72 -484.75 300.17 -483.87 299.61 C-482.97 299.02 -482.06 298.42 -481.12 297.81 C-479.15 296.54 -477.17 295.26 -475.19 293.98 C-473.66 293 -473.66 293 -472.09 291.99 C-467.13 288.8 -462.13 285.68 -457.12 282.56 C-455.63 281.63 -455.63 281.63 -454.11 280.68 C-452.08 279.42 -450.06 278.15 -448.03 276.89 C-443.02 273.76 -438.01 270.63 -433 267.5 C-431 266.25 -429 265 -427 263.75 C-426.01 263.13 -425.02 262.51 -424 261.88 C-343 211.25 -343 211.25 -340 209.37 C-338 208.13 -336.01 206.88 -334.01 205.63 C-328.95 202.47 -323.89 199.31 -318.82 196.14 C-309.7 190.45 -300.59 184.75 -291.5 179 C-278.25 170.61 -264.94 162.32 -251.63 154.03 C-250.59 153.38 -249.55 152.73 -248.48 152.06 C-246.43 150.78 -244.38 149.51 -242.34 148.23 C-238.07 145.57 -233.82 142.9 -229.63 140.13 C-228.99 139.71 -228.36 139.29 -227.7 138.86 C-226.09 137.79 -224.5 136.71 -222.9 135.64 C-219.6 133.77 -216.67 132.9 -213 132 C-214.79 135.97 -217.28 139.44 -219.75 143 C-220.23 143.7 -220.71 144.39 -221.21 145.11 C-226.84 153.24 -232.52 161.33 -238.19 169.42 C-240.58 172.83 -242.97 176.25 -245.36 179.66 C-247.1 182.16 -248.85 184.65 -250.6 187.14 C-252.86 190.37 -255.11 193.61 -257.34 196.86 C-257.87 197.63 -258.4 198.4 -258.95 199.2 C-259.95 200.64 -260.94 202.08 -261.92 203.53 C-266.82 210.6 -273.16 214.91 -280.38 219.38 C-281.61 220.14 -281.61 220.14 -282.86 220.93 C-284.64 222.04 -286.42 223.15 -288.2 224.26 C-291.05 226.03 -293.89 227.81 -296.74 229.59 C-301.78 232.75 -306.83 235.9 -311.88 239.05 C-318.11 242.94 -324.33 246.83 -330.56 250.72 C-334.8 253.38 -339.04 256.03 -343.29 258.67 C-350.72 263.3 -358.12 267.98 -365.5 272.69 C-374.38 278.35 -383.31 283.96 -392.25 289.53 C-398.34 293.34 -404.43 297.16 -410.5 301 C-417.65 305.53 -424.82 310.02 -432 314.5 C-441.58 320.48 -451.14 326.49 -460.68 332.54 C-463.09 334.06 -465.5 335.58 -467.91 337.09 C-475.33 341.77 -482.74 346.45 -490.12 351.19 C-490.71 351.56 -491.3 351.94 -491.9 352.32 C-494.59 353.98 -494.59 353.98 -497 356 C-497.09 358.29 -497.11 360.59 -497.1 362.88 C-497.1 363.57 -497.09 364.25 -497.09 364.96 C-497.09 367.16 -497.08 369.36 -497.06 371.56 C-497.06 373.05 -497.05 374.54 -497.05 376.03 C-497.04 379.69 -497.02 383.34 -497 387 C-493.59 385.93 -490.51 384.92 -487.54 382.93 C-486.92 382.51 -486.29 382.1 -485.65 381.68 C-484.98 381.23 -484.31 380.78 -483.62 380.31 C-482.11 379.31 -480.59 378.31 -479.07 377.32 C-478.26 376.78 -477.44 376.24 -476.6 375.69 C-471.92 372.65 -467.18 369.7 -462.44 366.75 C-460.91 365.8 -460.91 365.8 -459.36 364.83 C-457.28 363.53 -455.2 362.24 -453.11 360.94 C-448.07 357.8 -443.04 354.65 -438 351.5 C-431.98 347.74 -425.96 343.97 -419.93 340.21 C-408.32 332.98 -396.76 325.68 -385.22 318.33 C-370.16 308.73 -355.04 299.23 -339.88 289.79 C-338.01 288.63 -336.14 287.46 -334.28 286.29 C-331.81 284.75 -329.34 283.22 -326.88 281.69 C-326.16 281.24 -325.44 280.79 -324.71 280.32 C-320.9 277.97 -317.35 276.23 -313 275 C-314.34 277.82 -315.85 280.38 -317.62 282.95 C-318.14 283.71 -318.65 284.46 -319.19 285.24 C-319.74 286.05 -320.3 286.86 -320.88 287.69 C-321.46 288.53 -322.04 289.38 -322.64 290.25 C-327.34 297.08 -332.11 303.86 -336.9 310.62 C-339.69 314.55 -342.45 318.5 -345.21 322.45 C-346.4 324.14 -347.59 325.84 -348.78 327.53 C-351.63 331.6 -354.47 335.68 -357.24 339.8 C-357.76 340.56 -358.28 341.32 -358.81 342.11 C-359.77 343.52 -360.72 344.93 -361.65 346.36 C-367.42 354.75 -375.83 359.73 -384.5 364.75 C-390.94 368.55 -397.31 372.41 -403.56 376.5 C-417.61 385.68 -431.86 394.54 -446.09 403.43 C-455.42 409.25 -464.72 415.11 -474 421 C-474.97 421.61 -475.94 422.23 -476.94 422.86 C-480 424.8 -483.06 426.74 -486.12 428.69 C-487.58 429.61 -487.58 429.61 -489.06 430.55 C-489.95 431.11 -490.84 431.68 -491.76 432.26 C-492.55 432.77 -493.35 433.27 -494.17 433.79 C-495.94 434.87 -495.94 434.87 -497 436 C-497.09 438.22 -497.11 440.44 -497.1 442.66 C-497.1 443.32 -497.09 443.99 -497.09 444.67 C-497.09 446.8 -497.08 448.93 -497.06 451.06 C-497.06 452.5 -497.05 453.94 -497.05 455.38 C-497.04 458.92 -497.02 462.46 -497 466 C-493.04 464.8 -489.74 463.42 -486.27 461.16 C-485.39 460.6 -484.52 460.04 -483.62 459.46 C-482.69 458.85 -481.77 458.25 -480.81 457.62 C-478.83 456.34 -476.84 455.06 -474.86 453.79 C-473.37 452.82 -473.37 452.82 -471.86 451.84 C-467.8 449.22 -463.71 446.64 -459.62 444.06 C-458.86 443.58 -458.1 443.1 -457.32 442.61 C-450.96 438.59 -444.57 434.61 -438.19 430.62 C-430.43 425.79 -422.7 420.92 -415 416 C-404.39 409.23 -393.73 402.56 -383.05 395.9 C-377.93 392.71 -372.81 389.51 -367.69 386.31 C-366.68 385.69 -365.68 385.06 -364.65 384.41 C-359.35 381.1 -354.06 377.79 -348.79 374.45 C-347.27 373.49 -345.75 372.53 -344.23 371.58 C-339.8 368.79 -335.41 365.95 -331.05 363.06 C-319.85 355.72 -310.36 349.95 -297 348 C-295.95 347.77 -294.91 347.55 -293.83 347.31 C-288.53 346.17 -284.3 345.82 -279 347 C-278.67 351.87 -279.55 354.82 -281.81 359.12 C-282.33 360.14 -282.86 361.15 -283.39 362.2 C-285 365 -285 365 -286.55 366.98 C-288.42 369.58 -289.35 372.23 -290.44 375.25 C-291.26 377.51 -292.11 379.76 -293 382 C-293.24 382.66 -293.48 383.32 -293.73 384 C-296.34 390.27 -300.35 392.65 -306.19 395.81 C-308.01 396.85 -309.83 397.89 -311.65 398.94 C-313.01 399.71 -313.01 399.71 -314.4 400.5 C-318.11 402.64 -321.68 404.96 -325.25 407.31 C-332.01 411.74 -338.83 416.04 -345.69 420.31 C-353.48 425.17 -361.26 430.06 -369 435 C-377.72 440.56 -386.48 446.06 -395.25 451.54 C-401.35 455.34 -407.43 459.16 -413.5 463 C-420.55 467.46 -427.61 471.89 -434.69 476.31 C-436.2 477.26 -436.2 477.26 -437.74 478.22 C-442.86 481.41 -447.97 484.61 -453.09 487.8 C-463.16 494.08 -473.23 500.39 -483.25 506.75 C-484.17 507.33 -485.1 507.92 -486.05 508.52 C-487.33 509.34 -487.33 509.34 -488.64 510.17 C-489.39 510.65 -490.14 511.12 -490.91 511.61 C-491.6 512.07 -492.29 512.53 -493 513 C-493.74 513.41 -494.48 513.81 -495.25 514.23 C-497.32 515.97 -497.32 515.97 -497.45 519.19 C-497.43 520.47 -497.41 521.75 -497.39 523.07 C-497.38 523.76 -497.38 524.44 -497.37 525.15 C-497.35 527.33 -497.3 529.51 -497.25 531.69 C-497.23 533.17 -497.21 534.65 -497.2 536.13 C-497.15 539.75 -497.08 543.38 -497 547 C-493.11 545.81 -489.85 544.49 -486.45 542.27 C-485.6 541.72 -484.75 541.17 -483.87 540.61 C-482.96 540.02 -482.06 539.42 -481.12 538.81 C-479.15 537.54 -477.18 536.27 -475.21 535 C-474.19 534.34 -473.17 533.68 -472.12 533 C-467.04 529.74 -461.93 526.56 -456.81 523.38 C-447.29 517.43 -437.78 511.46 -428.29 505.45 C-423.57 502.46 -418.84 499.48 -414.11 496.49 C-410.22 494.03 -406.32 491.57 -402.43 489.11 C-387.53 479.68 -372.58 470.35 -357.63 461.03 C-356.59 460.38 -355.55 459.73 -354.48 459.06 C-352.43 457.78 -350.39 456.51 -348.34 455.23 C-344.05 452.56 -339.78 449.87 -335.56 447.09 C-334.91 446.67 -334.27 446.25 -333.6 445.81 C-331.97 444.73 -330.34 443.63 -328.71 442.54 C-326.05 441.03 -324.01 440.38 -321 440 C-321.59 444.22 -323.03 447.16 -325.19 450.81 C-325.7 451.69 -325.7 451.69 -326.22 452.58 C-327.02 453.93 -327.81 455.28 -328.61 456.63 C-330.2 459.33 -331.76 462.05 -333.33 464.76 C-339.64 475.68 -346.05 486.47 -353 497 C-353.67 498.09 -354.35 499.18 -355.04 500.3 C-355.71 501.35 -356.38 502.41 -357.06 503.5 C-357.63 504.42 -358.2 505.34 -358.79 506.28 C-364.42 513.2 -372.81 517.5 -380.31 522.12 C-382.46 523.46 -384.6 524.79 -386.75 526.12 C-387.81 526.78 -388.87 527.43 -389.96 528.11 C-394.26 530.78 -398.54 533.48 -402.81 536.19 C-403.58 536.67 -404.34 537.15 -405.13 537.65 C-406.65 538.62 -408.18 539.58 -409.71 540.55 C-414.43 543.54 -419.16 546.52 -423.89 549.51 C-427.78 551.97 -431.68 554.43 -435.57 556.89 C-444.3 562.42 -453.05 567.91 -461.81 573.38 C-470.04 578.51 -478.25 583.67 -486.44 588.88 C-487.86 589.78 -487.86 589.78 -489.31 590.7 C-490.18 591.25 -491.04 591.8 -491.93 592.37 C-492.7 592.85 -493.46 593.34 -494.25 593.84 C-495.95 594.88 -495.95 594.88 -497 596 C-497.09 598.22 -497.11 600.44 -497.1 602.66 C-497.1 603.32 -497.09 603.99 -497.09 604.67 C-497.09 606.8 -497.08 608.93 -497.06 611.06 C-497.06 612.5 -497.05 613.94 -497.05 615.38 C-497.04 618.92 -497.02 622.46 -497 626 C-493.57 625.35 -491.14 624.01 -488.2 622.15 C-487.26 621.55 -486.31 620.96 -485.34 620.34 C-483.81 619.37 -483.81 619.37 -482.25 618.38 C-480.07 617 -477.89 615.62 -475.71 614.25 C-474.58 613.53 -473.46 612.82 -472.33 612.1 C-467.19 608.86 -462.03 605.65 -456.88 602.44 C-450.82 598.66 -444.78 594.87 -438.78 591.02 C-437.27 590.05 -437.27 590.05 -435.74 589.07 C-433.84 587.85 -431.94 586.62 -430.04 585.39 C-428.76 584.57 -428.76 584.57 -427.46 583.73 C-426.71 583.25 -425.97 582.77 -425.21 582.27 C-421.95 580.39 -418.56 579.19 -415 578 C-415 578.66 -415 579.32 -415 580 C-415.66 580 -416.32 580 -417 580 C-417.4 580.89 -417.4 580.89 -417.82 581.79 C-419 584 -420.23 585.54 -421.95 587.36 C-422.54 588 -423.14 588.63 -423.75 589.28 C-424.71 590.29 -424.71 590.29 -425.69 591.31 C-426.35 592.01 -427.01 592.71 -427.69 593.43 C-433.04 599.07 -438.52 604.59 -444.07 610.04 C-447.3 613.21 -450.19 616.45 -453 620 C-454.11 621.03 -455.26 622.04 -456.44 623 C-460.33 626.32 -463.91 629.87 -467.5 633.5 C-472.17 638.21 -476.91 642.74 -482 647 C-483.51 648.28 -485.02 649.56 -486.52 650.84 C-488.21 652.27 -489.9 653.69 -491.59 655.11 C-493.79 656.97 -495.98 658.84 -498.16 660.73 C-505.8 667.31 -513.71 673.42 -521.83 679.4 C-524.06 681.05 -526.28 682.71 -528.5 684.38 C-558.36 706.72 -590.14 727.05 -623.73 743.31 C-624.48 743.67 -625.22 744.03 -625.98 744.4 C-627.38 745.08 -628.78 745.74 -630.19 746.4 C-631.83 747.19 -633.42 748.09 -635 749 C-635.33 749.99 -635.66 750.98 -636 752 C-635.5 751.55 -635.01 751.09 -634.5 750.62 C-631.81 748.88 -629.39 748.32 -626.3 747.58 C-622.2 746.54 -618.2 745.17 -614.19 743.81 C-612.8 743.35 -612.8 743.35 -611.39 742.87 C-608.59 741.92 -605.79 740.96 -603 740 C-602.23 739.74 -601.47 739.47 -600.68 739.2 C-559.7 724.94 -520.46 705.75 -483 684 C-482.22 683.55 -481.45 683.1 -480.65 682.64 C-470.92 677.01 -461.38 671.18 -452 665 C-451.41 664.61 -450.82 664.23 -450.21 663.83 C-437.01 655.17 -423.98 646.22 -411.52 636.5 C-408.3 633.98 -405.02 631.56 -401.69 629.19 C-390.91 621.4 -380.79 612.74 -370.75 604.04 C-367.14 600.93 -363.44 598.02 -359.59 595.21 C-357.15 593.35 -355.11 591.21 -353 589 C-351.57 587.54 -350.13 586.08 -348.69 584.62 C-347.99 583.92 -347.29 583.21 -346.57 582.48 C-344.53 580.51 -342.46 578.65 -340.31 576.8 C-335.45 572.58 -330.91 568.06 -326.38 563.5 C-325.56 562.68 -324.74 561.87 -323.89 561.03 C-319.84 556.97 -315.99 552.87 -312.32 548.47 C-310.43 546.37 -308.22 544.74 -306 543 C-304.6 541.39 -303.25 539.74 -301.94 538.06 C-298.45 533.7 -294.82 529.57 -291 525.5 C-285.73 519.86 -280.82 514.02 -276 508 C-274.97 506.74 -273.94 505.48 -272.91 504.21 C-261.08 489.77 -261.08 489.77 -250 474.75 C-248 472 -248 472 -246 471 C-245.56 470.55 -245.13 470.1 -244.68 469.63 C-242.66 467.67 -240.52 466.33 -238.12 464.85 C-237.15 464.24 -236.17 463.64 -235.17 463.01 C-234.12 462.37 -233.08 461.73 -232 461.06 C-229.81 459.7 -227.62 458.34 -225.43 456.98 C-224.34 456.31 -223.25 455.63 -222.12 454.94 C-217.8 452.25 -213.49 449.54 -209.19 446.81 C-208.43 446.33 -207.66 445.85 -206.88 445.35 C-202.99 442.9 -199.11 440.44 -195.23 437.98 C-191.29 435.48 -187.35 432.99 -183.39 430.51 C-180.9 428.94 -178.42 427.35 -175.95 425.77 C-174.32 424.74 -172.69 423.71 -171.06 422.69 C-170.31 422.2 -169.56 421.71 -168.78 421.21 C-168.08 420.78 -167.38 420.34 -166.66 419.89 C-166.05 419.5 -165.44 419.11 -164.8 418.71 C-162.51 417.81 -161.28 418.2 -159 419 C-159.01 417.98 -159.01 416.96 -159.02 415.91 C-159.03 412.13 -159.05 408.36 -159.05 404.58 C-159.06 402.95 -159.07 401.31 -159.08 399.68 C-159.09 397.33 -159.09 394.98 -159.1 392.63 C-159.1 391.9 -159.11 391.17 -159.11 390.41 C-159.11 385.23 -159.11 385.23 -158 383 C-164.2 386.17 -170.11 389.65 -175.88 393.56 C-182.28 397.89 -188.76 402.08 -195.31 406.19 C-196.24 406.78 -197.16 407.37 -198.12 407.97 C-198.98 408.51 -199.85 409.05 -200.74 409.61 C-201.51 410.09 -202.29 410.58 -203.08 411.08 C-203.72 411.38 -204.35 411.69 -205 412 C-205.66 411.67 -206.32 411.34 -207 411 C-203.99 402.56 -199.88 394.78 -195.65 386.9 C-194.5 384.74 -193.35 382.58 -192.2 380.41 C-191.46 379.02 -190.71 377.63 -189.97 376.23 C-189.63 375.6 -189.29 374.96 -188.94 374.3 C-186.83 370.37 -184.53 366.67 -182 363 C-176.89 364.63 -173 367.72 -168.75 370.88 C-167.13 372.06 -165.51 373.25 -163.89 374.43 C-163.07 375.03 -162.25 375.63 -161.41 376.25 C-157.8 378.87 -154.15 381.44 -150.5 384 C-144.63 388.12 -138.81 392.29 -133 396.5 C-125.04 402.27 -117.03 407.96 -108.99 413.61 C-107.03 414.98 -105.07 416.37 -103.12 417.75 C-101.93 418.58 -100.75 419.42 -99.56 420.25 C-98.53 420.98 -97.5 421.7 -96.44 422.45 C-94.2 424.18 -94.2 424.18 -92 424 C-91.88 419.55 -92.53 416.28 -94.06 412.12 C-95.03 408.91 -95.16 406.33 -95 403 C-95.33 403 -95.66 403 -96 403 C-96.06 402.25 -96.12 401.5 -96.18 400.73 C-96.27 399.75 -96.35 398.76 -96.44 397.75 C-96.52 396.78 -96.6 395.8 -96.68 394.8 C-97.08 391.32 -97.85 388.4 -99.06 385.12 C-100.03 381.91 -100.16 379.33 -100 376 C-100.33 376 -100.66 376 -101 376 C-101.06 375.25 -101.12 374.5 -101.18 373.73 C-101.27 372.75 -101.35 371.76 -101.44 370.75 C-101.52 369.78 -101.6 368.8 -101.68 367.8 C-102.08 364.32 -102.85 361.4 -104.06 358.12 C-105.03 354.91 -105.16 352.33 -105 349 C-105.33 349 -105.66 349 -106 349 C-106.06 348.25 -106.12 347.5 -106.18 346.73 C-106.27 345.75 -106.35 344.76 -106.44 343.75 C-106.52 342.78 -106.6 341.8 -106.68 340.8 C-107.08 337.32 -107.85 334.4 -109.06 331.12 C-110.03 327.91 -110.16 325.33 -110 322 C-110.33 322 -110.66 322 -111 322 C-111.06 321.25 -111.12 320.5 -111.18 319.73 C-111.27 318.75 -111.35 317.76 -111.44 316.75 C-111.52 315.78 -111.6 314.8 -111.68 313.8 C-112.09 310.19 -112.99 307.03 -114.06 303.56 C-114.89 300.42 -115 298.18 -115 295 C-115.48 293.86 -115.48 293.86 -115.97 292.69 C-117.06 289.86 -117.33 287.58 -117.5 284.56 C-117.81 280.39 -118.59 276.95 -120 273 C-120 271.33 -120 269.67 -120 268 C-120.48 266.86 -120.48 266.86 -120.97 265.69 C-122.37 262.04 -122.44 258.6 -122.66 254.72 C-123.02 251.86 -123.9 249.65 -125 247 C-125.12 243.69 -125.12 243.69 -125 241 C-125.33 241 -125.66 241 -126 241 C-125.96 240.28 -125.92 239.56 -125.88 238.81 C-125.84 236 -125.84 236 -127 233.56 C-128.18 230.55 -128 228.22 -128 225 C-128.65 223 -129.32 221 -130 219 C-130 217.33 -130 215.67 -130 214 C-130.31 213.11 -130.62 212.23 -130.94 211.31 C-132.13 207.61 -132.46 204.19 -132.79 200.33 C-133.02 197.83 -133.44 195.44 -134 193 C-134.16 192.09 -134.33 191.19 -134.5 190.25 C-134.78 188.04 -134.78 188.04 -136 187 C-136.04 185 -136.04 183 -136 181 C-136.33 181 -136.66 181 -137 181 C-137.06 180.25 -137.12 179.5 -137.18 178.73 C-137.27 177.75 -137.35 176.76 -137.44 175.75 C-137.52 174.78 -137.6 173.8 -137.68 172.8 C-137.95 170.43 -138.37 168.29 -139 166 C-139.16 165.11 -139.33 164.23 -139.5 163.31 C-139.77 161.05 -139.77 161.05 -141 160 C-141.04 158 -141.04 156 -141 154 C-141.33 154 -141.66 154 -142 154 C-142.33 150.7 -142.66 147.4 -143 144 C-143.33 144 -143.66 144 -144 144 C-146.3 132.48 -146.3 132.48 -146 127 C-146.33 127 -146.66 127 -147 127 C-147.33 123.7 -147.66 120.4 -148 117 C-148.33 117 -148.66 117 -149 117 C-151.3 105.48 -151.3 105.48 -151 100 C-151.33 100 -151.66 100 -152 100 C-152.33 96.37 -152.66 92.74 -153 89 C-153.33 89 -153.66 89 -154 89 C-155.19 83.62 -156.29 78.55 -156 73 C-156.33 73 -156.66 73 -157 73 C-157.06 72.24 -157.12 71.48 -157.18 70.7 C-157.27 69.71 -157.35 68.71 -157.44 67.69 C-157.52 66.7 -157.6 65.72 -157.68 64.7 C-157.92 61.91 -157.92 61.91 -159 59 C-158.5 56.5 -158.5 56.5 -157 54 C-150.63 50.88 -143.8 48.73 -137.12 46.38 C-135.24 45.71 -133.35 45.04 -131.47 44.37 C-130.18 43.91 -128.9 43.45 -127.62 43 C-122.55 41.2 -117.49 39.37 -112.43 37.54 C-103.08 34.16 -93.71 30.85 -84.31 27.62 C-67.25 21.76 -50.33 15.47 -33.41 9.18 C-31.59 8.51 -31.59 8.51 -29.73 7.82 C-27.44 6.97 -25.15 6.11 -22.87 5.26 C-18.23 3.54 -13.59 1.83 -8.92 0.21 C-7.88 -0.15 -7.88 -0.15 -6.82 -0.52 C-4.25 -1.2 -2.46 -0.94 0 0 Z M177 14 C177 14.33 177 14.66 177 15 C181.29 15 185.58 15 190 15 C190 14.67 190 14.34 190 14 C185.71 14 181.42 14 177 14 Z M-587 56 C-583 57 -583 57 -583 57 Z M-155 77 C-154 79 -154 79 -154 79 Z M-152 93 C-151 95 -151 95 -151 95 Z M-150 104 C-149 106 -149 106 -149 106 Z M-147 120 C-146 122 -146 122 -146 122 Z M-145 131 C-144 133 -144 133 -144 133 Z M-132 202 C-131 204 -131 204 -131 204 Z M-786 216 C-785 218 -785 218 -785 218 Z M-788 229 C-787 231 -787 231 -787 231 Z M-127 229 C-126 231 -126 231 -126 231 Z M-789 237 C-789 238.65 -789 240.3 -789 242 C-788.67 242 -788.34 242 -788 242 C-788 240.35 -788 238.7 -788 237 C-788.33 237 -788.66 237 -789 237 Z M-124 245 C-123 247 -123 247 -123 247 Z M-122 256 C-121 258 -121 258 -121 258 Z M-789 280 C-789 281.65 -789 283.3 -789 285 C-788.67 285 -788.34 285 -788 285 C-788 283.35 -788 281.7 -788 280 C-788.33 280 -788.66 280 -789 280 Z M-788 290 C-787 292 -787 292 -787 292 Z M-111 315 C-110 317 -110 317 -110 317 Z M-109 326 C-108 328 -108 328 -108 328 Z M-104 353 C-103 355 -103 355 -103 355 Z M-99 380 C-98 382 -98 382 -98 382 Z M-809 571 C-808 574 -808 574 -808 574 Z M-811 586 C-810 590 -810 590 -810 590 Z M-812 598 C-812 601.96 -812 605.92 -812 610 C-811.67 610 -811.34 610 -811 610 C-811 606.04 -811 602.08 -811 598 C-811.33 598 -811.66 598 -812 598 Z M-812 622 C-812 624.97 -812 627.94 -812 631 C-811.67 631 -811.34 631 -811 631 C-811 628.03 -811 625.06 -811 622 C-811.33 622 -811.66 622 -812 622 Z M-811 639 C-810 642 -810 642 -810 642 Z " fill="#349A95" transform="translate(872,91)"/>
<path d="M0 0 C3 2 3 2 3.38 3.82 C3.39 4.94 3.39 4.94 3.4 6.07 C3.41 6.93 3.42 7.78 3.44 8.66 C3.44 9.6 3.43 10.53 3.43 11.5 C3.45 12.98 3.45 12.98 3.46 14.48 C3.49 17.75 3.5 21.02 3.51 24.29 C3.53 26.55 3.55 28.81 3.57 31.07 C3.61 37.03 3.64 43 3.67 48.96 C3.7 55.04 3.75 61.12 3.79 67.2 C3.88 79.13 3.94 91.06 4 103 C6.84 100.17 9.64 97.35 12.25 94.31 C15.04 91.1 17.85 87.92 20.69 84.75 C21.41 83.94 22.14 83.13 22.89 82.3 C26.94 77.89 26.94 77.89 29 76 C29.66 76 30.32 76 31 76 C31.33 75.01 31.66 74.02 32 73 C33.83 71.31 33.83 71.31 36.25 69.44 C37.16 68.73 38.07 68.03 39 67.3 C39.99 66.54 40.98 65.78 42 65 C43.01 64.2 44.02 63.4 45.06 62.57 C50.74 58.08 56.54 53.86 62.62 49.94 C63.22 49.56 63.81 49.17 64.42 48.78 C66.93 47.19 69.16 45.95 72 45 C72.33 44.34 72.66 43.68 73 43 C76.94 40.79 81.03 38.87 85.1 36.92 C86.82 36.09 88.54 35.23 90.26 34.38 C97.88 30.7 105.63 28.01 113.74 25.66 C116.14 24.96 118.53 24.23 120.91 23.5 C130.09 20.73 139.26 18.38 148.69 16.62 C149.57 16.46 150.46 16.29 151.37 16.12 C157.29 15.08 162.99 14.81 169 15 C169 14.67 169 14.34 169 14 C174.4 13.24 179.66 12.85 185.11 12.87 C186.22 12.87 186.22 12.87 187.34 12.86 C188.88 12.86 190.42 12.87 191.97 12.87 C194.32 12.88 196.68 12.87 199.04 12.86 C200.54 12.86 202.05 12.87 203.55 12.87 C204.25 12.87 204.96 12.86 205.68 12.86 C208.73 12.88 211.08 13.03 214 14 C216.67 14.36 219.33 14.69 222 15 C226.37 15.51 230.7 16.06 235 17 C235 17.66 235 18.32 235 19 C235.57 18.81 236.15 18.62 236.74 18.42 C239.39 17.93 240.69 18.3 243.21 19.21 C244 19.5 244.79 19.78 245.6 20.07 C262.71 26.68 278.19 34.82 292 47 C293.26 48.1 293.26 48.1 294.55 49.21 C297.07 51.44 299.54 53.71 302 56 C302.82 56.76 303.65 57.52 304.5 58.3 C329.96 82.61 343.29 118.15 344.22 152.94 C344.79 192.24 331.77 227.36 305 256 C304.46 256.58 303.92 257.17 303.36 257.77 C289.75 272.36 272.71 284.42 253 289 C251.9 289.26 250.81 289.53 249.68 289.8 C246.46 290.56 243.23 291.3 240 292 C239.26 292.17 238.53 292.35 237.77 292.53 C220.13 295.55 199.04 294.14 182 289 C180.7 288.65 179.4 288.29 178.09 287.94 C164.21 283.81 151.85 276.57 141 267 C140.18 266.3 139.37 265.61 138.52 264.89 C124.96 253.06 114.88 239.05 104.7 224.37 C90.64 203.17 90.64 203.17 69 191 C60.98 189.84 53.22 192.88 46.75 197.67 C45.14 199.08 43.56 200.54 42 202 C41.34 202 40.68 202 40 202 C39.74 202.58 39.49 203.17 39.22 203.77 C37.89 206.2 36.39 207.78 34.44 209.75 C15.69 230.54 9.86 261.81 6.12 288.69 C6.02 289.46 5.91 290.23 5.8 291.03 C3.58 309 3.86 327.21 3.87 345.28 C3.87 347.98 3.87 350.68 3.87 353.37 C3.86 359.89 3.86 366.41 3.86 372.93 C3.87 378.23 3.87 383.53 3.87 388.82 C3.87 389.96 3.87 389.96 3.87 391.12 C3.87 392.66 3.87 394.2 3.86 395.73 C3.86 410.1 3.87 424.47 3.87 438.84 C3.88 451.17 3.87 463.5 3.87 475.83 C3.86 490.17 3.86 504.52 3.87 518.87 C3.87 520.4 3.87 521.92 3.87 523.45 C3.87 524.2 3.87 524.96 3.87 525.73 C3.87 531.03 3.87 536.33 3.86 541.63 C3.86 548.07 3.86 554.51 3.87 560.95 C3.87 564.24 3.87 567.53 3.87 570.82 C3.86 574.37 3.87 577.93 3.87 581.49 C3.87 582.53 3.87 583.58 3.87 584.66 C3.87 585.61 3.87 586.55 3.87 587.53 C3.87 588.35 3.87 589.17 3.87 590.02 C3.88 592.08 3.88 592.08 5 594 C5.19 596.11 5.38 598.21 5.54 600.32 C6.82 616.5 10.31 631.6 18 646 C18.55 647.03 19.09 648.05 19.66 649.11 C34.78 676.19 61.51 696.82 91 706 C91.66 706 92.32 706 93 706 C93 706.66 93 707.32 93 708 C93.99 707.67 94.98 707.34 96 707 C98.69 707.44 98.69 707.44 101 708 C101 708.66 101 709.32 101 710 C101.8 709.81 102.61 709.63 103.44 709.44 C104.28 709.29 105.13 709.15 106 709 C106.33 709.33 106.66 709.66 107 710 C109.67 710.14 112.32 710.04 115 710 C115 710.33 115 710.66 115 711 C116.03 711.06 116.03 711.06 117.08 711.11 C117.98 711.18 118.88 711.24 119.81 711.31 C121.15 711.4 121.15 711.4 122.52 711.49 C125.53 712.11 126.25 712.47 128 715 C128.3 717.8 128.41 720.38 128.39 723.19 C128.4 724.44 128.4 724.44 128.4 725.72 C128.42 728.48 128.41 731.24 128.4 734 C128.4 735.92 128.4 737.83 128.41 739.75 C128.41 743.77 128.41 747.79 128.39 751.8 C128.37 756.96 128.38 762.11 128.4 767.27 C128.41 771.23 128.41 775.19 128.4 779.14 C128.4 781.05 128.4 782.95 128.41 784.85 C128.42 787.5 128.4 790.16 128.39 792.81 C128.39 793.6 128.4 794.39 128.41 795.2 C128.34 800.52 128.34 800.52 126.78 802.7 C124.46 804.4 123.07 804.37 120.21 804.37 C118.72 804.38 118.72 804.38 117.21 804.39 C116.11 804.38 115.02 804.37 113.9 804.36 C112.16 804.36 112.16 804.36 110.39 804.37 C107.17 804.37 103.95 804.36 100.73 804.35 C97.26 804.34 93.79 804.34 90.32 804.34 C84.3 804.34 78.29 804.33 72.27 804.32 C63.58 804.29 54.88 804.28 46.19 804.28 C32.08 804.27 17.97 804.25 3.86 804.23 C-9.84 804.2 -23.55 804.18 -37.25 804.16 C-38.1 804.16 -38.94 804.16 -39.81 804.16 C-44.05 804.16 -48.29 804.15 -52.52 804.15 C-87.68 804.12 -122.84 804.07 -158 804 C-158.15 750.66 -158.3 697.31 -158.43 643.97 C-158.45 637.68 -158.47 631.39 -158.48 625.09 C-158.49 623.84 -158.49 622.59 -158.49 621.3 C-158.54 600.99 -158.6 580.68 -158.66 560.38 C-158.72 539.56 -158.77 518.73 -158.83 497.91 C-158.86 485.05 -158.89 472.2 -158.93 459.34 C-158.96 450.53 -158.98 441.73 -159 432.92 C-159.01 427.83 -159.02 422.75 -159.04 417.66 C-159.06 413.01 -159.07 408.36 -159.08 403.71 C-159.08 402.02 -159.09 400.33 -159.09 398.64 C-159.1 396.36 -159.11 394.07 -159.11 391.79 C-159.11 390.52 -159.11 389.25 -159.12 387.94 C-159 385 -159 385 -158 383 C-164.2 386.17 -170.11 389.65 -175.88 393.56 C-182.28 397.89 -188.76 402.08 -195.31 406.19 C-196.24 406.78 -197.16 407.37 -198.12 407.97 C-198.98 408.51 -199.85 409.05 -200.74 409.61 C-201.9 410.33 -201.9 410.33 -203.08 411.08 C-203.72 411.38 -204.35 411.69 -205 412 C-205.66 411.67 -206.32 411.34 -207 411 C-203.99 402.56 -199.88 394.78 -195.65 386.9 C-194.5 384.74 -193.35 382.58 -192.2 380.41 C-191.46 379.02 -190.71 377.63 -189.97 376.23 C-189.63 375.6 -189.29 374.96 -188.94 374.3 C-186.83 370.37 -184.53 366.67 -182 363 C-176.89 364.63 -173 367.72 -168.75 370.88 C-167.13 372.06 -165.51 373.25 -163.89 374.43 C-163.07 375.03 -162.25 375.63 -161.41 376.25 C-157.8 378.87 -154.15 381.44 -150.5 384 C-144.63 388.12 -138.81 392.29 -133 396.5 C-125.04 402.27 -117.03 407.96 -108.99 413.61 C-107.03 414.98 -105.07 416.37 -103.12 417.75 C-101.93 418.58 -100.75 419.42 -99.56 420.25 C-98.53 420.98 -97.5 421.7 -96.44 422.45 C-94.2 424.18 -94.2 424.18 -92 424 C-91.88 419.55 -92.53 416.28 -94.06 412.12 C-95.03 408.91 -95.16 406.33 -95 403 C-95.33 403 -95.66 403 -96 403 C-96.06 402.25 -96.12 401.5 -96.18 400.73 C-96.27 399.75 -96.35 398.76 -96.44 397.75 C-96.52 396.78 -96.6 395.8 -96.68 394.8 C-97.08 391.32 -97.85 388.4 -99.06 385.12 C-100.03 381.91 -100.16 379.33 -100 376 C-100.33 376 -100.66 376 -101 376 C-101.06 375.25 -101.12 374.5 -101.18 373.73 C-101.27 372.75 -101.35 371.76 -101.44 370.75 C-101.52 369.78 -101.6 368.8 -101.68 367.8 C-102.08 364.32 -102.85 361.4 -104.06 358.12 C-105.03 354.91 -105.16 352.33 -105 349 C-105.33 349 -105.66 349 -106 349 C-106.06 348.25 -106.12 347.5 -106.18 346.73 C-106.27 345.75 -106.35 344.76 -106.44 343.75 C-106.52 342.78 -106.6 341.8 -106.68 340.8 C-107.08 337.32 -107.85 334.4 -109.06 331.12 C-110.03 327.91 -110.16 325.33 -110 322 C-110.33 322 -110.66 322 -111 322 C-111.06 321.25 -111.12 320.5 -111.18 319.73 C-111.27 318.75 -111.35 317.76 -111.44 316.75 C-111.52 315.78 -111.6 314.8 -111.68 313.8 C-112.09 310.19 -112.99 307.03 -114.06 303.56 C-114.89 300.42 -115 298.18 -115 295 C-115.32 294.24 -115.64 293.48 -115.97 292.69 C-117.06 289.86 -117.33 287.58 -117.5 284.56 C-117.81 280.39 -118.59 276.95 -120 273 C-120 271.33 -120 269.67 -120 268 C-120.32 267.24 -120.64 266.48 -120.97 265.69 C-122.37 262.04 -122.44 258.6 -122.66 254.72 C-123.02 251.86 -123.9 249.65 -125 247 C-125.12 243.69 -125.12 243.69 -125 241 C-125.33 241 -125.66 241 -126 241 C-125.96 240.28 -125.92 239.56 -125.88 238.81 C-125.84 236 -125.84 236 -127 233.56 C-128.18 230.55 -128 228.22 -128 225 C-128.65 223 -129.32 221 -130 219 C-130 217.33 -130 215.67 -130 214 C-130.31 213.11 -130.62 212.23 -130.94 211.31 C-132.13 207.61 -132.46 204.19 -132.79 200.33 C-133.02 197.83 -133.44 195.44 -134 193 C-134.16 192.09 -134.33 191.19 -134.5 190.25 C-134.78 188.04 -134.78 188.04 -136 187 C-136.04 185 -136.04 183 -136 181 C-136.33 181 -136.66 181 -137 181 C-137.06 180.25 -137.12 179.5 -137.18 178.73 C-137.31 177.26 -137.31 177.26 -137.44 175.75 C-137.56 174.29 -137.56 174.29 -137.68 172.8 C-137.95 170.43 -138.37 168.29 -139 166 C-139.16 165.11 -139.33 164.23 -139.5 163.31 C-139.77 161.05 -139.77 161.05 -141 160 C-141.04 158 -141.04 156 -141 154 C-141.33 154 -141.66 154 -142 154 C-142.33 150.7 -142.66 147.4 -143 144 C-143.33 144 -143.66 144 -144 144 C-146.3 132.48 -146.3 132.48 -146 127 C-146.33 127 -146.66 127 -147 127 C-147.33 123.7 -147.66 120.4 -148 117 C-148.33 117 -148.66 117 -149 117 C-151.3 105.48 -151.3 105.48 -151 100 C-151.33 100 -151.66 100 -152 100 C-152.33 96.37 -152.66 92.74 -153 89 C-153.33 89 -153.66 89 -154 89 C-155.19 83.62 -156.29 78.55 -156 73 C-156.33 73 -156.66 73 -157 73 C-157.06 72.24 -157.12 71.48 -157.18 70.7 C-157.27 69.71 -157.35 68.71 -157.44 67.69 C-157.52 66.7 -157.6 65.72 -157.68 64.7 C-157.92 61.91 -157.92 61.91 -159 59 C-158.5 56.5 -158.5 56.5 -157 54 C-150.63 50.88 -143.8 48.73 -137.12 46.38 C-135.24 45.71 -133.35 45.04 -131.47 44.37 C-130.18 43.91 -128.9 43.45 -127.62 43 C-122.55 41.2 -117.49 39.37 -112.43 37.54 C-103.08 34.16 -93.71 30.85 -84.31 27.62 C-67.25 21.76 -50.33 15.47 -33.41 9.18 C-32.2 8.73 -30.98 8.28 -29.73 7.82 C-27.44 6.97 -25.15 6.11 -22.87 5.26 C-18.23 3.54 -13.59 1.83 -8.92 0.21 C-8.23 -0.03 -7.53 -0.27 -6.82 -0.52 C-4.25 -1.2 -2.46 -0.94 0 0 Z M177 14 C177 14.33 177 14.66 177 15 C181.29 15 185.58 15 190 15 C190 14.67 190 14.34 190 14 C185.71 14 181.42 14 177 14 Z M-155 77 C-154 79 -154 79 -154 79 Z M-152 93 C-151 95 -151 95 -151 95 Z M-150 104 C-149 106 -149 106 -149 106 Z M-147 120 C-146 122 -146 122 -146 122 Z M-145 131 C-144 133 -144 133 -144 133 Z M-132 202 C-131 204 -131 204 -131 204 Z M-127 229 C-126 231 -126 231 -126 231 Z M-124 245 C-123 247 -123 247 -123 247 Z M-122 256 C-121 258 -121 258 -121 258 Z M-111 315 C-110 317 -110 317 -110 317 Z M-109 326 C-108 328 -108 328 -108 328 Z M-104 353 C-103 355 -103 355 -103 355 Z M-99 380 C-98 382 -98 382 -98 382 Z " fill="#0D4548" transform="translate(872,91)"/>
<path d="M0 0 C0.99 0 1.98 0 3 0 C3.14 1.13 3.29 2.27 3.44 3.44 C3.61 6.81 3.61 6.81 5 8 C4.96 9.18 4.92 10.35 4.88 11.56 C4.81 16.31 5.52 20.79 6.38 25.44 C6.5 26.15 6.63 26.86 6.76 27.59 C7.51 31.72 7.51 31.72 10 35 C10.59 37.06 10.59 37.06 11.07 39.58 C11.24 40.49 11.42 41.41 11.6 42.35 C11.86 43.78 11.86 43.78 12.12 45.25 C12.4 46.66 12.4 46.66 12.68 48.11 C13.55 52.79 14.24 57.21 14 62 C14.33 62 14.66 62 15 62 C14.98 62.91 14.96 63.81 14.94 64.75 C15.01 68.59 15.74 71.28 17.06 74.88 C18.03 78.11 18.07 80.64 18 84 C18.44 86.79 18.44 86.79 20 89 C20.07 90.69 20.08 92.38 20.06 94.06 C20.05 94.98 20.04 95.9 20.04 96.85 C20.02 97.91 20.02 97.91 20 99 C20.66 99.33 21.32 99.66 22 100 C22 101.65 22 103.3 22 105 C22.33 105 22.66 105 23 105 C25.3 116.52 25.3 116.52 25 122 C25.33 122 25.66 122 26 122 C26.06 122.76 26.12 123.52 26.18 124.3 C26.31 125.79 26.31 125.79 26.44 127.31 C26.52 128.3 26.6 129.28 26.68 130.3 C26.92 133.09 26.92 133.09 28 136 C27.98 137.01 27.96 138.02 27.94 139.06 C27.66 142.13 27.66 142.13 30 144 C29.97 146.09 29.93 148.18 29.87 150.27 C30.11 155.33 31.62 160.15 33 165 C33.33 165 33.66 165 34 165 C34.63 170.02 35.13 174.93 35 180 C35.66 180.33 36.32 180.66 37 181 C36.96 182.26 36.92 183.52 36.88 184.81 C36.88 190.28 37.48 195.74 39 201 C39.66 201.33 40.32 201.66 41 202 C40.95 202.8 40.95 202.8 40.89 203.62 C40.69 209.43 41.33 214.87 42.38 220.56 C42.56 221.63 42.56 221.63 42.76 222.73 C43.1 224.5 43.54 226.25 44 228 C44.66 228.33 45.32 228.66 46 229 C46 232.3 46 235.6 46 239 C46.66 239.33 47.32 239.66 48 240 C48 241.98 48 243.96 48 246 C48.33 246 48.66 246 49 246 C49.68 249.48 50.34 252.96 51 256.44 C51.29 257.9 51.29 257.9 51.58 259.39 C52.7 265.37 53.2 270.91 53 277 C53.66 277.33 54.32 277.66 55 278 C54.98 278.91 54.96 279.81 54.94 280.75 C55.01 284.59 55.74 287.28 57.06 290.88 C58.03 294.09 58.16 296.67 58 300 C58.33 300 58.66 300 59 300 C59.06 300.75 59.12 301.5 59.18 302.27 C59.31 303.74 59.31 303.74 59.44 305.25 C59.52 306.22 59.6 307.2 59.68 308.2 C59.99 312.45 59.99 312.45 62 316 C62 318 62 320 62 322 C62.46 324.43 63.2 326.55 64.06 328.88 C65.03 332.11 65.07 334.64 65 338 C65.41 340.05 65.41 340.05 66 342 C66.34 343.67 66.68 345.33 67 347 C61.59 344.04 56.65 340.71 51.69 337.06 C50.09 335.9 48.49 334.73 46.89 333.57 C46.08 332.98 45.27 332.39 44.43 331.77 C40.61 328.98 36.77 326.21 32.94 323.44 C32.19 322.9 31.45 322.36 30.68 321.81 C24.96 317.68 19.2 313.6 13.42 309.54 C7.98 305.71 2.58 301.83 -2.81 297.94 C-3.57 297.39 -4.33 296.84 -5.11 296.28 C-10.88 292.1 -10.88 292.1 -13.05 290.27 C-13.69 289.85 -14.34 289.43 -15 289 C-15.99 289.33 -16.98 289.66 -18 290 C-18.87 290.23 -19.73 290.45 -20.62 290.69 C-21.41 291.12 -22.19 291.55 -23 292 C-23.67 294.94 -23.67 294.94 -24 298 C-25.5 299.63 -25.5 299.63 -27 301 C-27.35 302.33 -27.69 303.66 -28 305 C-29.44 307.75 -29.44 307.75 -31 310 C-31.66 310 -32.32 310 -33 310 C-33.33 311.98 -33.66 313.96 -34 316 C-34.66 316 -35.32 316 -36 316 C-36.1 316.93 -36.21 317.86 -36.31 318.81 C-37.04 322.18 -37.48 322.87 -40 325 C-43.71 329.48 -46.15 334.22 -47 340 C-47.66 340 -48.32 340 -49 340 C-48.9 340.66 -48.81 341.33 -48.71 342.01 C-49.14 346.38 -51.3 349.26 -53.69 352.88 C-54.12 353.56 -54.56 354.24 -55.01 354.94 C-56.31 356.98 -57.65 358.99 -59 361 C-59.45 361.68 -59.91 362.36 -60.38 363.07 C-61.53 364.75 -62.76 366.38 -64 368 C-64.66 368 -65.32 368 -66 368 C-66.08 368.7 -66.16 369.4 -66.25 370.12 C-67.2 373.75 -68.88 376.07 -71.06 379.12 C-71.47 379.7 -71.88 380.27 -72.3 380.86 C-73.52 382.58 -74.76 384.29 -76 386 C-76.63 386.88 -77.27 387.76 -77.92 388.66 C-79.18 390.4 -80.44 392.13 -81.71 393.86 C-83.5 396.31 -85.26 398.76 -87 401.23 C-92.91 409.53 -98.93 417.55 -105.66 425.2 C-107.37 427.25 -108.77 429.13 -110.18 431.36 C-110.78 432.23 -111.38 433.1 -112 434 C-112.66 434 -113.32 434 -114 434 C-114.31 435.02 -114.31 435.02 -114.62 436.06 C-116.43 439.92 -118.9 443.08 -122 446 C-122.66 446 -123.32 446 -124 446 C-124.27 446.59 -124.54 447.17 -124.81 447.78 C-126.01 450.03 -127.3 451.67 -129 453.56 C-129.62 454.25 -130.24 454.95 -130.88 455.66 C-137.39 462.83 -137.39 462.83 -140.38 466.09 C-142.35 468.28 -144.28 470.48 -146.2 472.71 C-149.79 476.81 -153.55 480.69 -157.4 484.54 C-158.08 485.22 -158.77 485.9 -159.47 486.6 C-160.9 488.03 -162.33 489.46 -163.76 490.89 C-165.93 493.06 -168.1 495.23 -170.26 497.4 C-171.66 498.8 -173.06 500.2 -174.46 501.6 C-175.1 502.24 -175.74 502.88 -176.39 503.53 C-180.2 507.32 -184.11 510.91 -188.19 514.4 C-189.99 515.99 -191.65 517.65 -193.31 519.38 C-197.04 523.18 -201.14 526.46 -205.29 529.8 C-207.68 531.74 -210.01 533.72 -212.31 535.75 C-212.94 536.3 -213.57 536.86 -214.22 537.43 C-215.38 538.45 -216.53 539.48 -217.68 540.51 C-220.44 542.92 -222.45 544.21 -226 545 C-226.33 545.99 -226.66 546.98 -227 548 C-228.48 549.39 -228.48 549.39 -230.39 550.82 C-231.1 551.35 -231.8 551.88 -232.52 552.43 C-233.28 552.99 -234.03 553.55 -234.81 554.12 C-235.58 554.7 -236.35 555.28 -237.15 555.88 C-238.71 557.05 -240.27 558.22 -241.83 559.38 C-243.69 560.77 -245.55 562.17 -247.41 563.57 C-250.26 565.73 -253.13 567.87 -256 570 C-256.88 570.65 -257.75 571.3 -258.65 571.98 C-287.31 593.1 -287.31 593.1 -296 596 C-296.64 596.66 -297.28 597.32 -297.94 598 C-300.17 600.16 -301.11 600.28 -304 601 C-304.62 601.66 -305.24 602.32 -305.88 603 C-308 605 -308 605 -311.12 605.5 C-312.07 605.66 -313.02 605.83 -314 606 C-314.43 606.96 -314.43 606.96 -314.88 607.94 C-316 610 -316 610 -317.82 610.64 C-319.25 610.96 -320.68 611.25 -322.12 611.51 C-324.23 611.89 -324.23 611.89 -326 614 C-329 616 -329 616 -331 617 C-331.99 617.66 -332.98 618.32 -334 619 C-335.01 619.33 -336.02 619.66 -337.06 620 C-340.14 621.05 -341.23 622.17 -343.38 624.49 C-345.14 626.13 -346.78 627.07 -348.94 628.12 C-349.61 628.46 -350.28 628.79 -350.96 629.13 C-353 630 -353 630 -355.12 630.5 C-357.21 630.91 -357.21 630.91 -359.19 632.81 C-364.44 636.9 -370.36 639.32 -377 640 C-377 640.66 -377 641.32 -377 642 C-380 643 -383 644 -386 645 C-386.58 645.5 -387.15 645.99 -387.75 646.5 C-390.75 648.5 -393.46 648.66 -397 649 C-397 649.66 -397 650.32 -397 651 C-398.11 651.15 -398.11 651.15 -399.25 651.31 C-402 651.81 -402 651.81 -403.86 653.4 C-406.18 655.13 -408.38 656.17 -411.06 657.25 C-411.92 657.61 -412.78 657.96 -413.66 658.33 C-416 659 -416 659 -419 658 C-415.26 653.98 -411.4 651.14 -406.75 648.25 C-389.35 637.2 -372.31 625.61 -356 613 C-355.21 612.4 -354.41 611.79 -353.59 611.17 C-339.62 600.45 -325.91 589.19 -312.73 577.51 C-311.15 576.13 -309.52 574.81 -307.88 573.5 C-305.66 571.58 -303.97 569.85 -302.12 567.62 C-298.13 562.81 -293.42 558.83 -288.44 555.06 C-286.31 553.26 -284.67 551.52 -282.88 549.4 C-278.29 544.11 -273.31 539.26 -268.32 534.36 C-264.22 530.3 -260.31 526.17 -256.55 521.8 C-254.54 519.47 -252.46 517.21 -250.38 514.94 C-247.82 512.12 -245.41 509.32 -243.25 506.19 C-241 503 -241 503 -238.69 500.72 C-235.75 497.75 -233.23 494.62 -230.69 491.31 C-229.71 490.05 -228.73 488.79 -227.75 487.54 C-227.28 486.93 -226.81 486.32 -226.32 485.69 C-224.62 483.52 -222.87 481.38 -221.12 479.25 C-207.66 462.43 -195.3 444.34 -184 426 C-183.41 425.04 -183.41 425.04 -182.81 424.07 C-176.45 413.77 -170.22 403.4 -164.13 392.94 C-163.1 391.16 -162.04 389.4 -160.98 387.63 C-155.21 377.84 -150.39 367.64 -145.57 357.34 C-144.2 354.42 -142.81 351.51 -141.42 348.59 C-134.91 334.92 -128.64 321.25 -123.28 307.07 C-121.31 301.92 -119.18 297.28 -116.11 292.69 C-112.02 286.49 -111.61 281.18 -112 274 C-120.18 274.41 -128.05 275.41 -136.09 276.98 C-140.13 277.76 -143.89 278.1 -148 278 C-150.79 278.44 -150.79 278.44 -153 280 C-154.69 280.07 -156.38 280.08 -158.06 280.06 C-158.98 280.05 -159.9 280.04 -160.85 280.04 C-161.56 280.02 -162.27 280.01 -163 280 C-163.33 280.66 -163.66 281.32 -164 282 C-167.3 282 -170.6 282 -174 282 C-174.33 282.66 -174.66 283.32 -175 284 C-177.72 284.65 -180.37 285.17 -183.12 285.62 C-183.87 285.76 -184.62 285.89 -185.39 286.03 C-189.99 286.82 -194.33 287.14 -199 287 C-198.38 283.75 -197.25 281.62 -195.33 278.94 C-194.78 278.15 -194.22 277.36 -193.65 276.55 C-193.04 275.71 -192.44 274.87 -191.81 274 C-190.53 272.19 -189.24 270.38 -187.96 268.56 C-187.3 267.64 -186.64 266.71 -185.96 265.76 C-182.95 261.52 -179.98 257.26 -177 253 C-175.83 251.33 -174.66 249.66 -173.49 247.99 C-172.91 247.16 -172.34 246.34 -171.74 245.49 C-170.02 243.03 -168.29 240.57 -166.57 238.11 C-159.64 228.21 -152.73 218.3 -145.83 208.37 C-141.33 201.89 -136.79 195.44 -132.23 189 C-128.94 184.36 -125.71 179.69 -122.5 175 C-118.77 169.55 -115 164.14 -111.19 158.75 C-102.14 145.96 -93.12 133.15 -84.31 120.19 C-79.94 113.76 -75.44 107.45 -70.81 101.21 C-67.43 96.64 -64.27 91.96 -61.14 87.21 C-57.08 81.13 -52.82 75.2 -48.59 69.24 C-45.95 65.52 -43.32 61.79 -40.69 58.06 C-40.22 57.4 -39.75 56.74 -39.27 56.06 C-35.5 50.72 -31.75 45.36 -28 40 C-26.92 38.45 -25.83 36.9 -24.75 35.35 C-24.21 34.58 -23.67 33.81 -23.12 33.02 C-21.96 31.37 -20.8 29.72 -19.64 28.07 C-16.43 23.49 -13.24 18.89 -10.09 14.26 C-9.14 12.87 -9.14 12.87 -8.17 11.46 C-6.95 9.68 -5.74 7.89 -4.53 6.1 C-3.98 5.3 -3.43 4.5 -2.86 3.67 C-2.38 2.96 -1.9 2.25 -1.4 1.52 C-0.94 1.02 -0.48 0.52 0 0 Z M2 3 C3 6 3 6 3 6 Z M9 41 C10 44 10 44 10 44 Z M10 46 C11 49 11 49 11 49 Z M11 51 C12 54 12 54 12 54 Z M12 56 C13 60 13 60 13 60 Z M16 78 C17 81 17 81 17 81 Z M22 110 C23 114 23 114 23 114 Z M23 116 C24 119 24 119 24 119 Z M25 127 C26 130 26 130 26 130 Z M33 170 C34 173 34 173 34 173 Z M48 251 C49 255 49 255 49 255 Z M49 257 C50 260 50 260 50 260 Z M50 262 C51 266 51 266 51 266 Z M51 268 C52 271 52 271 52 271 Z M-118 271 C-118 271.33 -118 271.66 -118 272 C-116.35 272 -114.7 272 -113 272 C-113 271.67 -113 271.34 -113 271 C-114.65 271 -116.3 271 -118 271 Z M-124 272 C-120 273 -120 273 -120 273 Z M-129 273 C-125 274 -125 274 -125 274 Z M-135 274 C-131 275 -131 275 -131 275 Z M-140 275 C-136 276 -136 276 -136 276 Z M-146 276 C-142 277 -142 277 -142 277 Z M-185 283 C-181 284 -181 284 -181 284 Z M-190 284 C-186 285 -186 285 -186 285 Z M-196 285 C-192 286 -192 286 -192 286 Z M56 294 C57 298 57 298 57 298 Z M58 306 C59 309 59 309 59 309 Z M63 332 C64 336 64 336 64 336 Z M-78 384 C-77 386 -77 386 -77 386 Z M-88 398 C-87 400 -87 400 -87 400 Z M-93 405 C-92 407 -92 407 -92 407 Z M-116 434 C-115 436 -115 436 -115 436 Z M-126 446 C-125 448 -125 448 -125 448 Z M-141 463 C-140 465 -140 465 -140 465 Z " fill="#0D4649" transform="translate(708,160)"/>
<path d="M0 0 C0.78 -0.01 1.56 -0.03 2.36 -0.04 C3.19 -0.04 4.03 -0.03 4.89 -0.03 C5.76 -0.03 6.64 -0.04 7.54 -0.05 C9.39 -0.05 11.24 -0.05 13.09 -0.04 C15.89 -0.03 18.68 -0.06 21.47 -0.09 C36.87 -0.15 49.67 1.81 61.4 12.63 C69.2 20.64 72.31 28.23 72.49 39.4 C72.31 51.43 68.49 59.05 59.99 67.4 C60.62 67.8 61.25 68.21 61.89 68.62 C71.28 74.85 80.15 82.69 82.57 94.16 C84.23 107.06 83.61 119.31 75.85 130.17 C65.8 142.23 55.29 146.63 39.99 148.4 C33.38 148.85 26.77 148.84 20.15 148.8 C17.14 148.78 14.12 148.8 11.11 148.81 C9.19 148.81 7.27 148.81 5.34 148.8 C4.45 148.81 3.55 148.81 2.63 148.82 C1.38 148.81 1.38 148.81 0.11 148.79 C-0.61 148.79 -1.34 148.79 -2.09 148.79 C-4.67 148.27 -5.41 147.49 -7.01 145.4 C-7.41 142.83 -7.41 142.83 -7.44 139.67 C-7.46 138.48 -7.47 137.28 -7.49 136.05 C-7.5 134.08 -7.5 134.08 -7.51 132.08 C-7.52 130.68 -7.54 129.29 -7.56 127.89 C-7.6 124.1 -7.63 120.31 -7.65 116.52 C-7.67 113.36 -7.7 110.2 -7.73 107.04 C-7.79 99.59 -7.84 92.13 -7.88 84.67 C-7.93 76.98 -8 69.28 -8.08 61.58 C-8.15 54.98 -8.2 48.37 -8.24 41.77 C-8.27 37.82 -8.3 33.87 -8.34 29.93 C-8.38 26.22 -8.41 22.51 -8.41 18.8 C-8.42 16.78 -8.45 14.77 -8.48 12.76 C-8.48 11.56 -8.48 10.37 -8.47 9.14 C-8.48 8.1 -8.49 7.05 -8.5 5.98 C-8.01 3.4 -8.01 3.4 -6.1 1.57 C-3.84 0.31 -2.56 0.02 0 0 Z M32.99 1.4 C36.99 2.4 36.99 2.4 36.99 2.4 Z M12.99 23.4 C12.81 26.06 12.76 28.6 12.79 31.26 C12.8 32.03 12.8 32.8 12.8 33.6 C12.81 36.08 12.84 38.55 12.86 41.03 C12.87 42.71 12.88 44.38 12.89 46.06 C12.91 50.18 12.95 54.29 12.99 58.4 C16.32 58.49 19.65 58.54 22.99 58.59 C23.92 58.62 24.86 58.64 25.82 58.67 C32.66 58.74 38.58 58.25 44.05 53.69 C44.73 52.8 44.73 52.8 45.43 51.9 C45.9 51.32 46.37 50.73 46.86 50.12 C49.22 46.53 49.26 42.9 49.55 38.72 C49.63 37.54 49.72 36.36 49.8 35.14 C49.9 33.79 49.9 33.79 49.99 32.4 C49.33 32.4 48.67 32.4 47.99 32.4 C47.99 31.66 47.99 30.92 47.99 30.15 C46.83 26.98 46.31 26.71 43.43 25.22 C36.37 22.15 30.28 21.23 22.61 21.15 C21.9 21.14 21.18 21.14 20.45 21.13 C16.26 21.02 16.26 21.02 12.99 23.4 Z M49.99 37.4 C50.99 41.4 50.99 41.4 50.99 41.4 Z M13.99 59.4 C13.99 59.73 13.99 60.06 13.99 60.4 C18.61 60.4 23.23 60.4 27.99 60.4 C27.99 60.07 27.99 59.74 27.99 59.4 C23.37 59.4 18.75 59.4 13.99 59.4 Z M12.99 82.4 C12.7 84.38 12.7 84.38 12.76 86.67 C12.76 87.55 12.76 88.43 12.76 89.34 C12.77 90.29 12.78 91.24 12.79 92.22 C12.8 93.2 12.8 94.17 12.8 95.18 C12.81 98.29 12.84 101.41 12.86 104.53 C12.87 106.64 12.88 108.75 12.89 110.86 C12.91 116.04 12.95 121.22 12.99 126.4 C17.07 126.49 21.15 126.54 25.24 126.59 C26.95 126.63 26.95 126.63 28.69 126.67 C37.34 126.74 46.62 126.6 53.84 121.32 C54.43 120.56 55.01 119.81 55.61 119.03 C56.22 118.28 56.84 117.53 57.47 116.76 C60.94 111.39 61.79 106.68 60.99 100.4 C59.36 94.4 57.52 89.67 51.99 86.4 C51.16 85.89 51.16 85.89 50.31 85.36 C41.87 80.53 32.37 80.24 22.86 80.15 C22.12 80.14 21.37 80.14 20.6 80.13 C16.33 80.01 16.33 80.01 12.99 82.4 Z " fill="#0D4548" transform="translate(85.011474609375,909.595947265625)"/>
<path d="M0 0 C1 -0.01 2 -0.02 3.03 -0.03 C4.63 -0 4.63 -0 6.27 0.02 C7.39 0.02 8.5 0.02 9.65 0.02 C12.02 0.03 14.38 0.04 16.75 0.07 C20.32 0.11 23.9 0.11 27.48 0.11 C43.06 0.15 56.77 0.2 69.87 9.62 C70.5 10.06 71.14 10.5 71.79 10.95 C78.72 16.27 84.26 24.5 85.65 33.18 C86.83 46.74 85.74 58.26 77.1 69.21 C68.06 78.97 55.63 81.92 42.87 83.62 C45.05 87.42 47.49 90.85 50.18 94.3 C50.61 94.86 51.04 95.41 51.48 95.98 C52.94 97.86 54.4 99.74 55.87 101.62 C57.55 103.78 59.23 105.94 60.91 108.1 C62.09 109.61 63.28 111.13 64.46 112.65 C69.21 118.75 73.92 124.89 78.6 131.05 C79.1 131.7 79.61 132.36 80.12 133.04 C80.83 133.97 80.83 133.97 81.54 134.91 C82.73 136.44 83.98 137.92 85.24 139.39 C86.87 141.62 86.87 141.62 86.68 144.87 C85.87 147.62 85.87 147.62 84.87 148.62 C68.91 150.28 68.91 150.28 63.28 147.21 C61.17 144.82 59.56 142.32 57.87 139.62 C56.34 137.57 54.77 135.57 53.2 133.56 C51.48 131.35 49.78 129.12 48.09 126.88 C45.38 123.3 42.66 119.73 39.93 116.18 C39.14 115.16 38.36 114.13 37.54 113.08 C35.48 110.4 33.39 107.73 31.31 105.06 C30.69 104.26 30.07 103.46 29.43 102.64 C28.21 101.08 26.99 99.53 25.77 97.97 C25.21 97.25 24.65 96.52 24.06 95.78 C23.25 94.74 23.25 94.74 22.42 93.67 C20.92 91.68 19.52 89.64 18.13 87.58 C17.01 86.11 17.01 86.11 15.87 84.62 C14.88 84.62 13.89 84.62 12.87 84.62 C12.86 85.39 12.85 86.16 12.84 86.96 C12.76 94.22 12.68 101.49 12.58 108.76 C12.53 112.5 12.48 116.24 12.44 119.98 C12.41 123.58 12.36 127.19 12.31 130.79 C12.29 132.17 12.27 133.54 12.26 134.92 C12.25 136.85 12.21 138.77 12.18 140.7 C12.17 141.79 12.16 142.89 12.14 144.02 C11.87 146.62 11.87 146.62 9.87 148.62 C7.37 148.9 5.05 149.03 2.55 149.05 C1.24 149.09 -0.08 149.13 -1.44 149.17 C-4.99 148.64 -6.68 148.14 -9.11 145.51 C-11.54 141.02 -10.82 135.43 -10.78 130.46 C-10.79 129.11 -10.8 127.75 -10.81 126.4 C-10.83 122.74 -10.82 119.07 -10.81 115.41 C-10.79 111.57 -10.81 107.73 -10.81 103.89 C-10.82 97.44 -10.81 91 -10.79 84.55 C-10.76 77.1 -10.77 69.66 -10.8 62.21 C-10.82 55.81 -10.82 49.41 -10.81 43.01 C-10.8 39.19 -10.8 35.37 -10.82 31.55 C-10.83 27.96 -10.82 24.36 -10.79 20.77 C-10.78 18.83 -10.8 16.88 -10.81 14.94 C-10.71 6.47 -10.71 6.47 -7.92 2.33 C-4.94 0.5 -3.45 -0.01 0 0 Z M39.87 1.62 C39.87 1.95 39.87 2.28 39.87 2.62 C42.18 2.62 44.49 2.62 46.87 2.62 C46.87 2.29 46.87 1.96 46.87 1.62 C44.56 1.62 42.25 1.62 39.87 1.62 Z M-9.13 6.62 C-9.13 51.83 -9.13 97.04 -9.13 143.62 C-8.8 143.62 -8.47 143.62 -8.13 143.62 C-8.13 98.41 -8.13 53.2 -8.13 6.62 C-8.46 6.62 -8.79 6.62 -9.13 6.62 Z M11.87 23.62 C11.69 26.48 11.63 29.26 11.67 32.12 C11.67 32.96 11.68 33.8 11.68 34.67 C11.69 37.36 11.71 40.05 11.74 42.74 C11.75 44.56 11.76 46.38 11.77 48.21 C11.79 52.68 11.82 57.15 11.87 61.62 C16.38 61.69 20.9 61.74 25.42 61.78 C26.95 61.79 28.48 61.82 30.01 61.84 C44.54 62.11 44.54 62.11 57.8 56.74 C62.07 52.35 63.3 48.92 63.3 42.8 C63.16 36.95 62.75 32.18 58.87 27.62 C49.81 20.73 38.26 21.3 27.37 21.37 C25.45 21.35 25.45 21.35 23.51 21.34 C22.29 21.34 21.08 21.35 19.83 21.35 C18.74 21.35 17.64 21.35 16.5 21.36 C13.71 21.35 13.71 21.35 11.87 23.62 Z M63.87 39.62 C63.87 41.27 63.87 42.92 63.87 44.62 C64.2 44.62 64.53 44.62 64.87 44.62 C64.87 42.97 64.87 41.32 64.87 39.62 C64.54 39.62 64.21 39.62 63.87 39.62 Z " fill="#0D4548" transform="translate(611.134765625,909.384765625)"/>
<path d="M0 0 C0.81 -0.01 1.63 -0.03 2.46 -0.04 C6.3 0.94 8.87 2.35 11.06 5.62 C11.98 10.18 11.85 14.74 11.79 19.36 C11.79 20.78 11.8 22.19 11.81 23.61 C11.82 27.44 11.8 31.28 11.77 35.11 C11.74 39.12 11.75 43.14 11.75 47.15 C11.75 53.89 11.72 60.62 11.68 67.36 C11.63 75.15 11.62 82.94 11.62 90.74 C11.62 98.23 11.61 105.73 11.58 113.22 C11.57 116.41 11.56 119.6 11.56 122.79 C11.56 126.55 11.54 130.3 11.51 134.06 C11.5 135.43 11.5 136.81 11.5 138.19 C11.5 140.07 11.48 141.95 11.46 143.83 C11.46 144.88 11.45 145.94 11.45 147.02 C11.06 149.62 11.06 149.62 9.74 151.46 C7 153.36 4.4 153.06 1.12 153.06 C-0.1 153.08 -1.33 153.1 -2.59 153.12 C-5.94 152.62 -5.94 152.62 -8.36 150.77 C-10.26 148.18 -10.29 146.77 -9.94 143.62 C-13.34 144.26 -15.63 145.6 -18.5 147.5 C-30.64 154.98 -46.26 156.46 -60.05 153.5 C-76.7 149.49 -88.98 139.09 -97.94 124.62 C-102.7 115.75 -105.32 107.25 -105.19 97.19 C-105.18 96.44 -105.17 95.69 -105.16 94.91 C-104.83 79.59 -97.86 64.51 -86.94 53.62 C-83.79 50.93 -80.51 48.73 -76.94 46.62 C-75.85 45.98 -74.76 45.34 -73.64 44.68 C-65.82 40.29 -58.96 38.6 -49.94 38.62 C-48.85 38.57 -47.77 38.51 -46.66 38.45 C-34.24 37.94 -25.43 41.76 -15.43 48.92 C-12.98 50.76 -12.98 50.76 -9.94 51.62 C-9.95 51.06 -9.96 50.49 -9.97 49.91 C-10.08 44.02 -10.16 38.14 -10.21 32.25 C-10.24 30.05 -10.27 27.85 -10.31 25.66 C-10.38 22.5 -10.4 19.34 -10.43 16.18 C-10.45 15.2 -10.48 14.22 -10.5 13.2 C-10.51 8.5 -10.49 6.35 -7.56 2.51 C-4.74 0.48 -3.43 -0.05 0 0 Z M-9.94 51.62 C-8.94 54.62 -8.94 54.62 -8.94 54.62 Z M-62.94 62.62 C-63.73 63.06 -64.52 63.5 -65.33 63.95 C-73.92 69.16 -79.7 77.29 -82.62 86.88 C-85.5 98.68 -82.86 109.15 -76.75 119.56 C-72.93 125.18 -68.07 129.83 -61.23 131.15 C-60.47 131.31 -59.72 131.46 -58.94 131.62 C-58.44 132.62 -58.44 132.62 -57.94 133.62 C-54.48 133.74 -51.02 133.81 -47.56 133.88 C-46.6 133.91 -45.63 133.94 -44.64 133.98 C-33.66 134.12 -26.06 130.66 -18.14 123.14 C-8.98 112.68 -9.22 100.76 -9.94 87.62 C-10.97 79.87 -14.65 73.35 -19.94 67.62 C-23.1 65.21 -26.35 63.34 -29.94 61.62 C-31.03 61.09 -32.13 60.55 -33.26 59.99 C-42.83 56.43 -54.11 57.67 -62.94 62.62 Z M-102.94 82.62 C-101.94 84.62 -101.94 84.62 -101.94 84.62 Z M-8.94 91.62 C-8.94 95.25 -8.94 98.88 -8.94 102.62 C-8.61 102.62 -8.28 102.62 -7.94 102.62 C-7.94 99 -7.94 95.37 -7.94 91.62 C-8.27 91.62 -8.6 91.62 -8.94 91.62 Z M-50.94 134.62 C-50.94 134.95 -50.94 135.29 -50.94 135.62 C-47.31 135.62 -43.68 135.62 -39.94 135.62 C-39.94 135.3 -39.94 134.96 -39.94 134.62 C-43.57 134.62 -47.2 134.62 -50.94 134.62 Z " fill="#0D4548" transform="translate(571.9375,905.375)"/>
<path d="M0 0 C11.42 9.75 19.48 21.92 21.44 37 C22.01 45.08 22.01 45.08 21.44 49 C17.57 51.58 14.4 51.27 9.93 51.23 C9.06 51.23 8.19 51.23 7.3 51.23 C4.42 51.23 1.55 51.21 -1.32 51.2 C-3.32 51.19 -5.31 51.19 -7.3 51.19 C-12.54 51.18 -17.78 51.16 -23.03 51.14 C-28.37 51.12 -33.72 51.11 -39.07 51.1 C-49.57 51.08 -60.07 51.04 -70.56 51 C-70.25 52.61 -69.94 54.21 -69.62 55.82 C-69.45 56.71 -69.27 57.61 -69.09 58.53 C-67.38 66.46 -63.17 71.97 -57.23 77.31 C-50.48 81.58 -43.55 82.53 -35.69 82.44 C-34.81 82.43 -33.94 82.43 -33.04 82.42 C-23.9 82.2 -17.09 80.58 -10.56 74 C-9.9 74 -9.24 74 -8.56 74 C-8.32 73.46 -8.07 72.92 -7.82 72.36 C-6.27 69.45 -4.4 66.9 -2.44 64.25 C-1.35 62.77 -1.35 62.77 -0.24 61.27 C0.31 60.52 0.87 59.77 1.44 59 C5.25 60.19 8.66 61.52 12.12 63.5 C12.87 63.92 13.62 64.35 14.39 64.78 C16.1 65.8 17.78 66.89 19.44 68 C16.92 78.61 7.61 89.34 -1.38 95.18 C-9.67 100.07 -17.87 103.43 -27.56 104 C-28.66 104.07 -29.76 104.14 -30.89 104.21 C-47.76 104.72 -61.85 101.01 -74.23 89.44 C-81.38 82.44 -87.25 74.5 -90.56 65 C-90.92 63.99 -91.28 62.99 -91.65 61.95 C-93.06 56.88 -92.85 51.72 -92.81 46.5 C-92.82 44.99 -92.82 44.99 -92.84 43.45 C-92.8 28.65 -86.06 14.53 -75.69 4.04 C-74.99 3.36 -74.28 2.69 -73.56 2 C-72.79 1.16 -72.79 1.16 -72 0.31 C-52.98 -18.66 -19.55 -15.26 0 0 Z M-62.56 20 C-65.61 24.4 -67.56 27.57 -67.56 33 C-45.78 33 -24 33 -1.56 33 C-5.93 20.36 -5.93 20.36 -15.83 13.03 C-16.44 12.75 -17.06 12.48 -17.69 12.19 C-18.62 11.74 -18.62 11.74 -19.57 11.28 C-34.36 4.24 -51.71 7.39 -62.56 20 Z M-41.56 84 C-41.56 84.33 -41.56 84.66 -41.56 85 C-37.6 85 -33.64 85 -29.56 85 C-29.56 84.67 -29.56 84.34 -29.56 84 C-33.52 84 -37.48 84 -41.56 84 Z " fill="#0D4548" transform="translate(798.5625,956)"/>
<path d="M0 0 C1.54 0.97 3.09 1.95 4.62 2.94 C6.29 3.94 7.95 4.94 9.62 5.94 C9.52 4.89 9.42 3.83 9.31 2.75 C9.62 -1.06 9.62 -1.06 11.5 -4 C15.86 -6.88 19.53 -7 24.62 -6.06 C27.69 -4.12 27.69 -4.12 29.62 -2.06 C30.12 -1.57 30.12 -1.57 30.62 -1.06 C30.73 0.31 30.76 1.69 30.77 3.07 C30.77 3.96 30.78 4.85 30.78 5.77 C30.78 7.24 30.78 7.24 30.79 8.75 C30.79 10.3 30.79 10.3 30.8 11.87 C30.82 15.3 30.82 18.73 30.83 22.15 C30.83 24.52 30.84 26.89 30.85 29.26 C30.86 34.24 30.86 39.22 30.87 44.19 C30.87 50.58 30.89 56.97 30.92 63.36 C30.94 68.26 30.95 73.16 30.95 78.06 C30.95 80.41 30.96 82.77 30.97 85.13 C30.99 88.42 30.99 91.71 30.98 95 C30.99 95.98 31 96.96 31.01 97.97 C31 98.87 31 99.76 30.99 100.68 C30.99 101.85 30.99 101.85 31 103.04 C30.87 103.67 30.75 104.29 30.62 104.94 C26.99 107.36 25.01 107.3 20.69 107.38 C18.85 107.43 18.85 107.43 16.97 107.5 C13.62 106.94 13.62 106.94 11.31 104.66 C9.94 102.45 8.68 100.31 7.62 97.94 C6.5 98.64 6.5 98.64 5.35 99.36 C-10.36 108.92 -26.1 111.23 -44.09 106.9 C-53.78 104.06 -60.2 98.9 -67.38 91.94 C-68.01 91.37 -68.65 90.81 -69.31 90.22 C-79.2 81.2 -84.53 68.31 -85.72 55.14 C-86.1 39.38 -81.46 24.63 -71.12 12.56 C-52.01 -7.16 -24.26 -14.2 0 0 Z M9.62 5.94 C10.62 7.94 10.62 7.94 10.62 7.94 Z M-45.38 17.94 C-46.05 18.3 -46.73 18.66 -47.42 19.03 C-54.73 23.56 -59.84 32.11 -62.71 40.05 C-65.5 52.19 -63.37 62.64 -56.99 73.24 C-52.41 79.89 -46.08 85.19 -38.25 87.46 C-27.77 89.19 -15.73 89.48 -6.38 83.94 C4.2 76.14 8.26 68.69 10.62 55.94 C11.7 44.79 8.77 32.66 1.62 23.94 C-6.02 16.34 -14.48 12.59 -25.25 12.38 C-32.74 12.44 -38.79 14.3 -45.38 17.94 Z M-84.38 43.94 C-83.38 47.94 -83.38 47.94 -83.38 47.94 Z M10.62 44.94 C11.62 47.94 11.62 47.94 11.62 47.94 Z M-84.38 54.94 C-83.38 58.94 -83.38 58.94 -83.38 58.94 Z M10.62 55.94 C11.62 57.94 11.62 57.94 11.62 57.94 Z M-31.38 88.94 C-31.38 89.27 -31.38 89.6 -31.38 89.94 C-27.75 89.94 -24.12 89.94 -20.38 89.94 C-20.38 89.61 -20.38 89.28 -20.38 88.94 C-24 88.94 -27.63 88.94 -31.38 88.94 Z " fill="#0D4548" transform="translate(911.375,951.0625)"/>
<path d="M0 0 C1.66 1 3.33 2.01 5 3 C4.9 1.95 4.79 0.9 4.69 -0.19 C5 -4 5 -4 6.88 -6.94 C11.24 -9.82 14.91 -9.94 20 -9 C23.06 -7.06 23.06 -7.06 25 -5 C25.5 -4.5 25.5 -4.5 26 -4 C26.1 -2.64 26.14 -1.28 26.14 0.09 C26.15 0.97 26.15 1.85 26.16 2.75 C26.16 4.21 26.16 4.21 26.16 5.7 C26.17 7.23 26.17 7.23 26.18 8.79 C26.19 12.18 26.2 15.57 26.2 18.96 C26.21 21.31 26.21 23.65 26.22 26 C26.23 30.92 26.24 35.85 26.24 40.77 C26.25 47.09 26.27 53.41 26.3 59.73 C26.32 64.58 26.32 69.43 26.32 74.28 C26.33 76.61 26.33 78.94 26.35 81.27 C26.36 84.52 26.36 87.78 26.36 91.04 C26.37 92.01 26.37 92.98 26.38 93.97 C26.38 94.86 26.37 95.75 26.37 96.66 C26.37 97.82 26.37 97.82 26.37 98.99 C25.89 101.57 25.08 102.45 23 104 C19.79 104.43 19.79 104.43 16.06 104.44 C14.84 104.46 13.61 104.48 12.35 104.5 C9 104 9 104 6.57 102.14 C4.67 99.56 4.65 98.14 5 95 C0.95 96.52 -2.75 98.45 -6.56 100.5 C-20.91 107.87 -36.73 107.44 -52 103 C-60.14 100.06 -65.85 94.96 -72 89 C-72.94 88.19 -72.94 88.19 -73.9 87.36 C-77.91 83.77 -80.63 79.63 -83.31 75 C-83.65 74.42 -83.99 73.84 -84.34 73.24 C-86.54 69.27 -87.9 65.39 -89 61 C-89.2 60.36 -89.4 59.72 -89.61 59.05 C-92.24 45.36 -89.5 29.75 -82 18 C-75.3 8.42 -67.44 -0.2 -56.69 -5.12 C-55.62 -5.62 -54.55 -6.12 -53.45 -6.63 C-34.64 -14.09 -16.56 -10.6 0 0 Z M5 3 C6 5 6 5 6 5 Z M-59 22 C-65.31 30.49 -69.6 40.32 -68.94 51.06 C-67.21 62.52 -62.16 72.44 -53 79.68 C-42.75 86.43 -29.69 86.66 -17.91 84.41 C-10.17 81.75 -2.98 75.54 1.44 68.69 C5.15 60.99 6.26 52.89 6.31 44.44 C6.32 43.4 6.32 43.4 6.33 42.34 C6.28 38.69 6.08 37.12 4 34 C3.22 32.4 2.45 30.8 1.69 29.19 C-2.93 19.96 -9.56 13.89 -19.48 10.51 C-34.04 7.55 -48.55 11.05 -59 22 Z M-89 40 C-88 44 -88 44 -88 44 Z M6 43 C7 45 7 45 7 45 Z M-89 53 C-88 57 -88 57 -88 57 Z M6 53 C7 55 7 55 7 55 Z M-36 86 C-36 86.33 -36 86.66 -36 87 C-32.37 87 -28.74 87 -25 87 C-25 86.67 -25 86.34 -25 86 C-28.63 86 -32.26 86 -36 86 Z " fill="#0D4548" transform="translate(317,954)"/>
<path d="M0 0 C1.38 -0 1.38 -0 2.78 -0 C6.52 0.77 7.92 1.7 10.5 4.56 C11.27 8.11 11.22 11.62 11.21 15.23 C11.22 16.27 11.24 17.31 11.25 18.38 C11.3 21.69 11.3 25 11.31 28.31 C11.34 30.56 11.36 32.8 11.39 35.05 C11.45 40.55 11.49 46.06 11.5 51.56 C12.12 51.15 12.73 50.74 13.37 50.32 C14.18 49.78 14.99 49.24 15.82 48.68 C17.02 47.88 17.02 47.88 18.25 47.06 C26.76 41.4 33.2 38.66 43.5 38.56 C44.44 38.5 45.38 38.44 46.35 38.38 C57.94 37.84 65.89 42.83 74.38 50.19 C84.05 59.19 86.51 69.79 87.5 82.56 C87.67 87.71 87.69 92.85 87.7 97.99 C87.71 99.08 87.71 99.08 87.71 100.2 C87.73 104.03 87.74 107.87 87.74 111.7 C87.75 115.66 87.77 119.62 87.8 123.58 C87.82 126.63 87.82 129.68 87.82 132.73 C87.83 134.19 87.83 135.65 87.85 137.11 C87.86 139.15 87.86 141.18 87.86 143.21 C87.86 144.95 87.86 144.95 87.87 146.72 C87.5 149.56 87.5 149.56 86.18 151.43 C83.42 153.29 80.77 152.96 77.5 152.94 C76.26 152.95 75.03 152.95 73.75 152.96 C70.5 152.56 70.5 152.56 68.69 151.23 C65.66 146.98 65.25 144.88 65.26 139.66 C65.26 138.97 65.26 138.27 65.25 137.55 C65.25 136.03 65.25 134.52 65.26 133 C65.26 130.6 65.25 128.19 65.24 125.78 C65.2 118.94 65.18 112.11 65.19 105.27 C65.2 101.08 65.18 96.89 65.15 92.71 C65.14 91.12 65.14 89.53 65.15 87.94 C65.32 75.4 65.32 75.4 59.5 64.56 C53.61 59.56 47.69 58.72 40.07 59.02 C31.58 60.31 24.29 64.46 18.96 71.21 C14.06 79.07 11.4 87.27 11.34 96.5 C11.33 98.26 11.33 98.26 11.31 100.05 C11.3 101.3 11.3 102.56 11.29 103.85 C11.27 105.83 11.25 107.81 11.23 109.79 C11.17 114.66 11.13 119.53 11.1 124.4 C11.08 127.14 11.06 129.88 11.02 132.62 C10.99 135.2 10.97 137.78 10.97 140.36 C10.95 141.52 10.93 142.69 10.92 143.89 C10.91 144.91 10.9 145.94 10.89 147 C10.5 149.56 10.5 149.56 9.17 151.39 C6.44 153.3 3.84 153 0.56 153 C-0.66 153.02 -1.89 153.04 -3.15 153.06 C-7.14 152.47 -8.05 151.7 -10.5 148.56 C-11.01 145.85 -11.01 145.85 -11.01 142.69 C-11.03 141.48 -11.04 140.28 -11.05 139.05 C-11.05 137.73 -11.04 136.42 -11.03 135.06 C-11.04 133.66 -11.05 132.26 -11.06 130.86 C-11.08 127.05 -11.08 123.25 -11.07 119.45 C-11.07 116.27 -11.07 113.09 -11.08 109.92 C-11.1 102.42 -11.09 94.93 -11.08 87.44 C-11.06 79.71 -11.08 71.98 -11.11 64.25 C-11.13 57.62 -11.14 50.98 -11.13 44.34 C-11.13 40.38 -11.13 36.42 -11.15 32.45 C-11.17 28.72 -11.16 25 -11.14 21.27 C-11.13 19.25 -11.15 17.23 -11.17 15.22 C-11.06 5.35 -11.06 5.35 -8.13 2.25 C-5.14 0.33 -3.53 -0.08 0 0 Z " fill="#0D4548" transform="translate(1088.5,905.4375)"/>
<path d="M0 0 C12.28 9.9 16.83 19.55 18.81 35.19 C19.27 40.7 19.24 46.21 19.21 51.74 C19.21 53.26 19.22 54.77 19.22 56.29 C19.22 59.43 19.22 62.57 19.2 65.71 C19.19 69.73 19.2 73.76 19.21 77.78 C19.23 80.9 19.22 84.01 19.21 87.13 C19.21 88.61 19.21 90.1 19.22 91.58 C19.23 93.64 19.22 95.7 19.2 97.77 C19.2 98.94 19.2 100.11 19.19 101.31 C18.81 104.19 18.81 104.19 17.49 106.06 C14.74 107.91 12.13 107.62 8.88 107.62 C7.65 107.64 6.42 107.66 5.16 107.68 C1.17 107.09 0.26 106.31 -2.19 103.19 C-2.7 100.57 -2.7 100.57 -2.72 97.57 C-2.73 96.44 -2.75 95.31 -2.77 94.15 C-2.77 92.93 -2.76 91.71 -2.76 90.45 C-2.78 89.19 -2.79 87.92 -2.8 86.62 C-2.84 83.24 -2.86 79.87 -2.87 76.5 C-2.89 70.5 -2.96 64.51 -3.01 58.52 C-3.03 56.61 -3.03 56.61 -3.05 54.67 C-2.16 35.82 -2.16 35.82 -9.19 19.19 C-14.94 14.06 -20.99 13.72 -28.41 13.79 C-36.18 14.61 -42.71 18.23 -48.12 23.81 C-57.05 35.23 -57.31 48.15 -57.4 61.99 C-57.43 64.46 -57.46 66.92 -57.48 69.38 C-57.53 73.24 -57.56 77.1 -57.59 80.96 C-57.62 84.7 -57.66 88.44 -57.71 92.18 C-57.71 93.34 -57.72 94.5 -57.72 95.69 C-57.74 96.76 -57.75 97.84 -57.77 98.94 C-57.78 99.88 -57.79 100.83 -57.8 101.8 C-58.19 104.19 -58.19 104.19 -59.51 105.99 C-62.24 107.94 -64.84 107.62 -68.12 107.62 C-69.35 107.64 -70.58 107.66 -71.84 107.68 C-75.19 107.19 -75.19 107.19 -77.36 105.78 C-80.17 101.8 -79.75 98.03 -79.72 93.27 C-79.73 92.26 -79.74 91.25 -79.75 90.21 C-79.77 86.88 -79.76 83.55 -79.75 80.22 C-79.76 77.91 -79.77 75.59 -79.77 73.28 C-79.78 68.43 -79.78 63.58 -79.76 58.73 C-79.75 52.51 -79.77 46.29 -79.81 40.07 C-79.83 35.29 -79.83 30.51 -79.82 25.73 C-79.82 23.44 -79.82 21.15 -79.84 18.85 C-79.86 15.65 -79.84 12.44 -79.82 9.24 C-79.83 8.29 -79.84 7.34 -79.85 6.37 C-79.79 1.79 -79.68 -0.18 -76.8 -3.9 C-73.17 -6.55 -70.92 -6.47 -66.56 -6.23 C-63.06 -5.62 -61.44 -4.56 -59.19 -1.81 C-58.47 0.51 -57.8 2.84 -57.19 5.19 C-56.26 4.64 -55.33 4.1 -54.37 3.54 C-53.12 2.82 -51.87 2.1 -50.62 1.38 C-50.02 1.02 -49.41 0.66 -48.78 0.29 C-33.28 -8.65 -15.14 -10.74 0 0 Z M-2.19 36.19 C-2.19 38.83 -2.19 41.47 -2.19 44.19 C-1.86 44.19 -1.53 44.19 -1.19 44.19 C-1.19 41.55 -1.19 38.91 -1.19 36.19 C-1.52 36.19 -1.85 36.19 -2.19 36.19 Z " fill="#0D4548" transform="translate(438.1875,950.8125)"/>
<path d="M0 0 C1.08 0.47 2.17 0.95 3.29 1.44 C12.68 6.01 22.44 13.27 27 23 C27.02 25.07 27.02 25.07 26 27 C23.67 28.96 23.67 28.96 20.75 30.81 C19.8 31.44 18.84 32.06 17.86 32.71 C14.6 34.18 13.32 34.19 10 33 C7.69 31.06 7.69 31.06 6 29 C6 28.34 6 27.68 6 27 C5.42 26.72 4.83 26.44 4.23 26.15 C1.5 24.74 -0.98 23.05 -3.51 21.32 C-10.23 17.76 -16.76 16.44 -24.31 16.5 C-25.14 16.5 -25.97 16.51 -26.82 16.52 C-37.28 16.81 -46.4 20.77 -54 28 C-61.38 36.1 -65.11 45.01 -65 56 C-64.3 65.57 -60.26 75.41 -53.19 82 C-44.43 88.89 -35.68 90.21 -24.88 90.31 C-23.88 90.34 -22.88 90.37 -21.86 90.4 C-12.48 90.48 -5.13 88.24 2 82 C2.66 82 3.32 82 4 82 C4.49 80.52 4.49 80.52 5 79 C5.66 79 6.32 79 7 79 C7.37 78.04 7.37 78.04 7.75 77.06 C9 75 9 75 10.69 74.15 C14.28 73.92 16.23 75.61 19.19 77.56 C20.25 78.24 21.32 78.93 22.42 79.63 C25 82 25 82 26.05 85.03 C25.97 90.2 22.54 92.57 19 96 C18.41 96.61 17.82 97.22 17.21 97.86 C5.91 108.76 -9.86 111.96 -25.06 112.38 C-45.61 111.86 -59.61 104.97 -73.7 90.55 C-79.54 84.07 -84.21 76.64 -86 68 C-86.17 67.47 -86.34 66.93 -86.51 66.38 C-89.58 51.5 -86.34 36.37 -78.16 23.82 C-68.21 9.3 -54.83 -0.2 -37.34 -3.67 C-24.92 -5.43 -11.54 -5.15 0 0 Z M-86 47 C-85 50 -85 50 -85 50 Z M-86 61 C-85 64 -85 64 -85 64 Z M-31 92 C-31 92.33 -31 92.66 -31 93 C-26.71 93 -22.42 93 -18 93 C-18 92.67 -18 92.34 -18 92 C-22.29 92 -26.58 92 -31 92 Z " fill="#0D4548" transform="translate(1040,948)"/>
<path d="M0 0 C2.79 1.69 3.3 2.4 4.75 5.5 C4.08 11.49 0.8 15.63 -2.69 20.44 C-3.53 20.31 -4.38 20.18 -5.25 20.04 C-11.77 19.25 -16.66 18.67 -22.04 22.8 C-33.16 33.89 -32.81 50.25 -32.9 64.9 C-32.93 67.5 -32.96 70.1 -32.98 72.7 C-33.03 76.77 -33.06 80.85 -33.09 84.93 C-33.11 88.87 -33.16 92.82 -33.21 96.77 C-33.21 98 -33.22 99.22 -33.22 100.49 C-33.24 101.62 -33.25 102.75 -33.27 103.92 C-33.28 104.91 -33.29 105.91 -33.3 106.94 C-33.69 109.44 -33.69 109.44 -35.01 111.26 C-37.76 113.19 -40.4 112.83 -43.69 112.81 C-44.93 112.82 -46.16 112.83 -47.44 112.84 C-50.69 112.44 -50.69 112.44 -52.36 111.18 C-54.02 109 -54.08 107.8 -54.12 105.08 C-54.14 104.19 -54.16 103.3 -54.18 102.38 C-54.19 101.41 -54.19 100.43 -54.2 99.43 C-54.22 98.4 -54.24 97.37 -54.25 96.32 C-54.31 92.91 -54.34 89.5 -54.38 86.1 C-54.4 83.73 -54.43 81.37 -54.47 79.01 C-54.53 74.05 -54.57 69.1 -54.62 64.14 C-54.67 57.79 -54.76 51.43 -54.86 45.07 C-54.93 40.19 -54.98 35.31 -55.03 30.43 C-55.05 28.09 -55.08 25.74 -55.12 23.4 C-55.18 20.12 -55.2 16.85 -55.21 13.57 C-55.23 12.6 -55.26 11.63 -55.28 10.63 C-55.26 4.06 -55.26 4.06 -52.31 0.84 C-48.09 -1.42 -44.35 -1.34 -39.69 -0.56 C-36.75 1.25 -36.75 1.25 -34.69 3.44 C-33.69 4.44 -32.69 5.44 -31.69 6.44 C-31.02 6.03 -30.36 5.62 -29.68 5.2 C-28.35 4.39 -28.35 4.39 -27 3.56 C-26.13 3.03 -25.26 2.5 -24.36 1.95 C-16.77 -2.34 -8.24 -3.46 0 0 Z " fill="#0D4548" transform="translate(229.6875,945.5625)"/>
<path d="M0 0 C3.48 1.28 6.32 2.75 9.32 4.93 C10.1 5.5 10.89 6.07 11.69 6.65 C12.49 7.24 13.3 7.83 14.12 8.44 C15.34 9.32 15.34 9.32 16.58 10.21 C19.93 12.65 23.13 14.99 26 18 C15.22 24.87 4.43 31.74 -6.38 38.56 C-7.13 39.04 -7.88 39.51 -8.66 40 C-10.08 40.9 -11.5 41.79 -12.92 42.68 C-14.37 43.6 -15.81 44.54 -17.24 45.48 C-17.96 45.95 -18.68 46.42 -19.41 46.9 C-20.06 47.33 -20.7 47.76 -21.36 48.2 C-21.9 48.46 -22.44 48.73 -23 49 C-23.66 48.67 -24.32 48.34 -25 48 C-21.99 39.56 -17.88 31.78 -13.65 23.9 C-12.5 21.74 -11.35 19.58 -10.2 17.41 C-9.46 16.02 -8.71 14.63 -7.97 13.23 C-7.63 12.6 -7.29 11.96 -6.94 11.3 C-4.83 7.37 -2.53 3.67 0 0 Z " fill="#359B96" transform="translate(690,454)"/>
<path d="M0 0 C133.32 0 266.64 0 404 0 C404 0.33 404 0.66 404 1 C270.68 1 137.36 1 0 1 C0 0.67 0 0.34 0 0 Z " fill="#359B96" transform="translate(303,145)"/>
<path d="M0 0 C0.33 0 0.66 0 1 0 C1 45.21 1 90.42 1 137 C0.67 137 0.34 137 0 137 C0 91.79 0 46.58 0 0 Z " fill="#0D4548" transform="translate(76,915)"/>
<path d="M0 0 C0.33 0 0.66 0 1 0 C1 33.66 1 67.32 1 102 C0.67 102 0.34 102 0 102 C0 68.34 0 34.68 0 0 Z " fill="#0D4548" transform="translate(174,951)"/>
<path d="M0 0 C1.88 0.88 1.88 0.88 3.88 3.88 C1.94 4.74 0 5.59 -1.94 6.44 C-3.02 6.91 -4.1 7.39 -5.21 7.88 C-8.12 8.88 -8.12 8.88 -11.12 7.88 C-3.28 -0.19 -3.28 -0.19 0 0 Z " fill="#1D6767" transform="translate(300.125,810.125)"/>
<path d="M0 0 C0.33 0 0.66 0 1 0 C1 3.96 1 7.92 1 12 C0.67 12 0.34 12 0 12 C0 8.04 0 4.08 0 0 Z " fill="#0D4548" transform="translate(705,997)"/>
<path d="M0 0 C0.99 0.33 1.98 0.66 3 1 C0.38 2.75 -1.04 3.39 -4 4 C-2.68 2.68 -1.36 1.36 0 0 Z " fill="#359B96" transform="translate(287,818)"/>
<path d="M0 0 C0.33 0 0.66 0 1 0 C1 2.97 1 5.94 1 9 C0.67 9 0.34 9 0 9 C0 6.03 0 3.06 0 0 Z " fill="#359B96" transform="translate(81,348)"/>
<path d="M0 0 C2.64 0 5.28 0 8 0 C8 0.33 8 0.66 8 1 C5.36 1 2.72 1 0 1 C0 0.67 0 0.34 0 0 Z " fill="#0D4548" transform="translate(1012,943)"/>
<path d="M0 0 C2.31 0 4.62 0 7 0 C7 0.33 7 0.66 7 1 C4.69 1 2.38 1 0 1 C0 0.67 0 0.34 0 0 Z " fill="#0D4548" transform="translate(881,943)"/>
<path d="M0 0 C2.31 0 4.62 0 7 0 C7 0.33 7 0.66 7 1 C4.69 1 2.38 1 0 1 C0 0.67 0 0.34 0 0 Z " fill="#0D4548" transform="translate(760,943)"/>
<path d="M0 0 C2.31 0 4.62 0 7 0 C7 0.33 7 0.66 7 1 C4.69 1 2.38 1 0 1 C0 0.67 0 0.34 0 0 Z " fill="#0D4548" transform="translate(522,943)"/>
<path d="M0 0 C2.31 0 4.62 0 7 0 C7 0.33 7 0.66 7 1 C4.69 1 2.38 1 0 1 C0 0.67 0 0.34 0 0 Z " fill="#0D4548" transform="translate(282,943)"/>
<path d="M0 0 C1.98 0 3.96 0 6 0 C6 0.33 6 0.66 6 1 C4.02 1 2.04 1 0 1 C0 0.67 0 0.34 0 0 Z " fill="#0D4548" transform="translate(1132,943)"/>
<path d="M0 0 C1.98 0 3.96 0 6 0 C6 0.33 6 0.66 6 1 C4.02 1 2.04 1 0 1 C0 0.67 0 0.34 0 0 Z " fill="#0D4548" transform="translate(413,943)"/>
<path d="M0 0 C1.65 0 3.3 0 5 0 C5 0.33 5 0.66 5 1 C3.35 1 1.7 1 0 1 C0 0.67 0 0.34 0 0 Z " fill="#2D8986" transform="translate(545,440)"/>
<path d="M0 0 C0.33 0 0.66 0 1 0 C1 1.65 1 3.3 1 5 C0.67 5 0.34 5 0 5 C0 3.35 0 1.7 0 0 Z " fill="#2D8986" transform="translate(751,378)"/>
<path d="M0 0 C0.33 0 0.66 0 1 0 C1 1.65 1 3.3 1 5 C0.67 5 0.34 5 0 5 C0 3.35 0 1.7 0 0 Z " fill="#2D8986" transform="translate(746,351)"/>
<path d="M0 0 C4 1 4 1 4 1 Z " fill="#2B8582" transform="translate(534,442)"/>
<path d="M0 0 C1 4 1 4 1 4 Z " fill="#2B8582" transform="translate(761,433)"/>
<path d="M0 0 C1 4 1 4 1 4 Z " fill="#2B8582" transform="translate(754,395)"/>
<path d="M0 0 C1 4 1 4 1 4 Z " fill="#2B8582" transform="translate(752,384)"/>
<path d="M0 0 C1 4 1 4 1 4 Z " fill="#2B8582" transform="translate(749,368)"/>
<path d="M0 0 C1 4 1 4 1 4 Z " fill="#2B8582" transform="translate(747,357)"/>
<path d="M0 0 C1 4 1 4 1 4 Z " fill="#2B8582" transform="translate(745,346)"/>
<path d="M0 0 C1 4 1 4 1 4 Z " fill="#2B8582" transform="translate(743,336)"/>
<path d="M0 0 C1 4 1 4 1 4 Z " fill="#2B8582" transform="translate(739,314)"/>
<path d="M0 0 C1 4 1 4 1 4 Z " fill="#2B8582" transform="translate(738,309)"/>
<path d="M0 0 C1 4 1 4 1 4 Z " fill="#2B8582" transform="translate(736,298)"/>
<path d="M0 0 C1 4 1 4 1 4 Z " fill="#2B8582" transform="translate(728,255)"/>
<path d="M0 0 C1 4 1 4 1 4 Z " fill="#2B8582" transform="translate(716,189)"/>
<path d="M0 0 C1 4 1 4 1 4 Z " fill="#2B8582" transform="translate(715,184)"/>
<path d="M0 0 C1 4 1 4 1 4 Z " fill="#2B8582" transform="translate(713,173)"/>
<path d="M0 0 C3 1 3 1 3 1 Z " fill="#0D4548" transform="translate(218,943)"/>
<path d="M0 0 C3 1 3 1 3 1 Z " fill="#277E7C" transform="translate(322,804)"/>
<path d="M0 0 C3 1 3 1 3 1 Z " fill="#0D4548" transform="translate(990,801)"/>
<path d="" fill="#277E7C" transform="translate(0,0)"/>
<path d="" fill="#277E7C" transform="translate(0,0)"/>
<path d="" fill="#277E7C" transform="translate(0,0)"/>
<path d="M0 0 C2 1 2 1 2 1 Z " fill="#21706F" transform="translate(311,809)"/>
<path d="M0 0 C2 1 2 1 2 1 Z " fill="#21706F" transform="translate(314,808)"/>
<path d="M0 0 C2 1 2 1 2 1 Z " fill="#21706F" transform="translate(331,800)"/>
<path d="M0 0 C2 1 2 1 2 1 Z " fill="#21706F" transform="translate(333,799)"/>
<path d="M0 0 C2 1 2 1 2 1 Z " fill="#21706F" transform="translate(351,790)"/>
<path d="M0 0 C2 1 2 1 2 1 Z " fill="#21706F" transform="translate(366,782)"/>
<path d="M0 0 C2 1 2 1 2 1 Z " fill="#21706F" transform="translate(368,781)"/>
<path d="M0 0 C2 1 2 1 2 1 Z " fill="#21706F" transform="translate(370,780)"/>
<path d="M0 0 C2 1 2 1 2 1 Z " fill="#21706F" transform="translate(372,779)"/>
<path d="M0 0 C2 1 2 1 2 1 Z " fill="#21706F" transform="translate(377,776)"/>
<path d="M0 0 C2 1 2 1 2 1 Z " fill="#21706F" transform="translate(382,773)"/>
<path d="M0 0 C2 1 2 1 2 1 Z " fill="#21706F" transform="translate(384,772)"/>
<path d="M0 0 C2 1 2 1 2 1 Z " fill="#21706F" transform="translate(386,771)"/>
<path d="M0 0 C2 1 2 1 2 1 Z " fill="#21706F" transform="translate(394,766)"/>
<path d="M0 0 C2 1 2 1 2 1 Z " fill="#21706F" transform="translate(404,760)"/>
<path d="M0 0 C2 1 2 1 2 1 Z " fill="#21706F" transform="translate(412,755)"/>
<path d="" fill="#21706F" transform="translate(0,0)"/>
<path d="" fill="#21706F" transform="translate(0,0)"/>
<path d="" fill="#21706F" transform="translate(0,0)"/>
<path d="" fill="#21706F" transform="translate(0,0)"/>
<path d="" fill="#21706F" transform="translate(0,0)"/>
<path d="" fill="#21706F" transform="translate(0,0)"/>
<path d="" fill="#21706F" transform="translate(0,0)"/>
<path d="" fill="#21706F" transform="translate(0,0)"/>
<path d="" fill="#21706F" transform="translate(0,0)"/>
<path d="" fill="#21706F" transform="translate(0,0)"/>
<path d="" fill="#21706F" transform="translate(0,0)"/>
<path d="" fill="#21706F" transform="translate(0,0)"/>
<path d="" fill="#21706F" transform="translate(0,0)"/>
<path d="" fill="#0D4548" transform="translate(0,0)"/>
<path d="" fill="#359B96" transform="translate(0,0)"/>
<path d="" fill="#359B96" transform="translate(0,0)"/>
<path d="" fill="#0D4548" transform="translate(0,0)"/>
</svg>
